<?xml version="1.0" encoding="utf-8"?>
<!-- Generator: Adobe Illustrator 24.0.3, SVG Export Plug-In . SVG Version: 6.00 Build 0)  -->
<svg version="1.1" id="Camada_1" xmlns="http://www.w3.org/2000/svg" xmlns:xlink="http://www.w3.org/1999/xlink" x="0px" y="0px"
	 viewBox="0 0 550 565.7" style="enable-background:new 0 0 550 565.7;" xml:space="preserve">
<style type="text/css">
	.st0{fill:#FFFFFF;}
	.st1{fill:#F1EDFF;}
	.st2{fill:#BAA4FF;}
	.st3{fill:#EEEAFE;}
	.st4{fill:#CBB3FC;}
	.st5{fill:#DBCFFD;}
	.st6{fill:#F44638;}
	.st7{fill:#B69FF7;}
	.st8{fill:#FF5E4D;}
	.st9{fill:none;stroke:#000000;stroke-miterlimit:10;}
	.st10{fill:#FD9E38;}
	.st11{fill:#FFCB48;}
	.st12{fill:#B52366;}
	.st13{fill:#C43B72;}
	.st14{fill:#61BDD6;}
	.st15{fill:#76D8DF;}
	.st16{fill:#30193B;}
	.st17{fill:#FF97A6;}
	.st18{fill:#3B2B5B;}
	.st19{fill:#F8F7FD;}
	.st20{fill:#C95D77;}
	.st21{fill:#295A6E;}
	.st22{fill:#396F7F;}
	.st23{fill:#7F65C1;}
	.st24{fill:#EF4743;}
	.st25{fill:#F970A8;}
	.st26{fill:#F95DA4;}
	.st27{fill:#2A6868;}
	.st28{fill:#357A5F;}
	.st29{fill:#FC877E;}
	.st30{fill:#184056;}
	.st31{fill:#F99680;}
	.st32{fill:#FFAD96;}
	.st33{fill:#AACBE8;}
	.st34{fill:#D5EAF5;}
	.st35{fill:#F48989;}
	.st36{fill:#FFE5B0;}
	.st37{fill:#6F58B7;}
	.st38{fill:#F9D5A0;}
	.st39{fill:#3F7889;}
	.st40{fill:#27664B;}
	.st41{fill:#9D83E5;}
	.st42{fill:#675893;}
	.st43{fill:#FFABAB;}
	.st44{fill:#F98A8A;}
	.st45{fill:#A87C1B;}
	.st46{fill:#D6A034;}
	.st47{fill:#DB1B12;}
	.st48{fill:#EF599D;}
	.st49{fill:#FC9C97;}
	.st50{fill:#4EA07D;}
</style>
<rect y="-1" class="st0" width="550" height="565.7"/>
<path class="st1" d="M17.9,353.8h521.8c0,0,9.4-174.7-128.9-210.4C208.3,91.1,61.5,263.3,17.9,353.8z"/>
<ellipse class="st2" cx="274.5" cy="354.6" rx="267.5" ry="6.7"/>
<g>
	<ellipse class="st3" cx="272.3" cy="421.3" rx="94.5" ry="6.4"/>
</g>
<g>
	<ellipse class="st3" cx="198" cy="427.7" rx="12.1" ry="2.7"/>
</g>
<g>
	<g>
		<g>
			<rect x="222" y="355.2" class="st4" width="12.4" height="3.9"/>
		</g>
		<g>
			<rect x="222.8" y="230.4" class="st5" width="3.6" height="124.8"/>
		</g>
		<g>
			<rect x="226.4" y="230.4" class="st4" width="1.8" height="124.8"/>
		</g>
		<g>
			<rect x="218.7" y="355.2" class="st5" width="12.4" height="3.9"/>
		</g>
	</g>
	<g>
		<g>
			<rect x="216.9" y="242.7" class="st5" width="8" height="2.2"/>
		</g>
		<g>
			<rect x="128.3" y="240.3" class="st6" width="86.5" height="42.2"/>
		</g>
		<g>
			<path class="st7" d="M218.3,252.7c2.6,0,4.8-4,4.8-9s-2.1-9-4.8-9h-2.1v18h2.3"/>
		</g>
		<g>
			<ellipse class="st4" cx="216.2" cy="243.8" rx="4.8" ry="9"/>
		</g>
		<g>
			<path class="st8" d="M214.7,235.8c2.3,0,4.2,3.6,4.2,8s-1.9,8-4.2,8V235.8"/>
		</g>
		<g>
			<rect x="128.3" y="235.8" class="st8" width="86.5" height="15.9"/>
		</g>
		<g>
			<g>
				<path class="st9" d="M214.7,235.8"/>
			</g>
		</g>
		<g>
			<path class="st7" d="M129,252.7c2.6,0,4.8-4,4.8-9s-2.1-9-4.8-9h-2.1v18h2.3"/>
		</g>
		<g>
			<ellipse class="st4" cx="127.2" cy="243.8" rx="4.8" ry="9"/>
		</g>
		<g>
			<path class="st5" d="M129,243.8c0,1.9-0.8,3.4-1.8,3.4s-1.8-1.5-1.8-3.4s0.8-3.4,1.8-3.4C128.2,240.3,129,241.9,129,243.8z"/>
		</g>
		<g>
			<rect x="118.7" y="242.7" class="st5" width="8" height="2.2"/>
		</g>
	</g>
	<g>
		<g>
			<rect x="217.6" y="286.1" class="st5" width="8" height="2.2"/>
		</g>
		<g>
			<rect x="129" y="283.8" class="st10" width="86.5" height="34.2"/>
		</g>
		<g>
			<path class="st7" d="M219,296.2c2.6,0,4.8-4,4.8-9s-2.1-9-4.8-9h-2.1v18h2.3"/>
		</g>
		<g>
			<ellipse class="st4" cx="216.8" cy="287.2" rx="4.8" ry="9"/>
		</g>
		<g>
			<path class="st11" d="M215.3,279.3c2.3,0,4.2,3.6,4.2,8s-1.9,8-4.2,8V279.3"/>
		</g>
		<g>
			<rect x="129" y="279.3" class="st11" width="86.5" height="15.9"/>
		</g>
		<g>
			<g>
				<path class="st9" d="M215.3,279.3"/>
			</g>
		</g>
		<g>
			<path class="st7" d="M129.7,296.2c2.6,0,4.8-4,4.8-9s-2.1-9-4.8-9h-2.1v18h2.3"/>
		</g>
		<g>
			<ellipse class="st4" cx="127.9" cy="287.2" rx="4.8" ry="9"/>
		</g>
		<g>
			<path class="st5" d="M129.7,287.2c0,1.9-0.8,3.4-1.8,3.4s-1.8-1.5-1.8-3.4s0.8-3.4,1.8-3.4S129.7,285.3,129.7,287.2z"/>
		</g>
		<g>
			<rect x="119.3" y="286.1" class="st5" width="8" height="2.2"/>
		</g>
	</g>
	<g>
		<g>
			<rect x="218" y="307.7" class="st5" width="8" height="2.2"/>
		</g>
		<g>
			<rect x="129.4" y="305.4" class="st12" width="86.5" height="34.2"/>
		</g>
		<g>
			<path class="st7" d="M219.4,317.8c2.6,0,4.8-4,4.8-9s-2.1-9-4.8-9h-2.1v18h2.3"/>
		</g>
		<g>
			<ellipse class="st4" cx="217.3" cy="308.8" rx="4.8" ry="9"/>
		</g>
		<g>
			<path class="st13" d="M215.8,300.9c2.3,0,4.2,3.6,4.2,8s-1.9,8-4.2,8V300.9"/>
		</g>
		<g>
			<rect x="129.4" y="300.9" class="st13" width="86.5" height="15.9"/>
		</g>
		<g>
			<g>
				<path class="st9" d="M215.8,300.9"/>
			</g>
		</g>
		<g>
			<path class="st7" d="M130.2,317.8c2.6,0,4.8-4,4.8-9s-2.1-9-4.8-9h-2.1v18h2.3"/>
		</g>
		<g>
			<path class="st4" d="M133.1,308.8c0,5-2.1,9-4.8,9c-2.6,0-4.8-4-4.8-9s2.1-9,4.8-9C131,299.8,133.1,303.9,133.1,308.8z"/>
		</g>
		<g>
			<path class="st5" d="M130.2,308.8c0,1.9-0.8,3.4-1.8,3.4s-1.8-1.5-1.8-3.4s0.8-3.4,1.8-3.4S130.2,306.9,130.2,308.8z"/>
		</g>
		<g>
			<rect x="119.8" y="307.7" class="st5" width="8" height="2.2"/>
		</g>
	</g>
	<g>
		<rect x="217.8" y="263.8" class="st5" width="8" height="2.2"/>
	</g>
	<g>
		<path class="st14" d="M228.2,290.1h-87.8c0,0-2.7-0.9-7.1-9.6c-2.8-5.4-4.1-19.1-4.1-19.1h86.5c0,0,3.5,14.1,6.2,18.8
			C225.8,287.3,228.2,290.1,228.2,290.1z"/>
	</g>
	<g>
		<path class="st7" d="M219.2,273.8c2.6,0,4.8-4,4.8-9s-2.1-9-4.8-9h-2.1v18h2.3"/>
	</g>
	<g>
		<ellipse class="st4" cx="217.1" cy="264.9" rx="4.8" ry="9"/>
	</g>
	<g>
		<path class="st15" d="M215.6,256.9c2.3,0,4.2,3.6,4.2,8s-1.9,8-4.2,8V256.9"/>
	</g>
	<g>
		<rect x="129.2" y="256.9" class="st15" width="86.5" height="15.9"/>
	</g>
	<g>
		<g>
			<path class="st9" d="M215.6,256.9"/>
		</g>
	</g>
	<g>
		<path class="st7" d="M129.9,273.8c2.6,0,4.8-4,4.8-9s-2.1-9-4.8-9h-2.1v18h2.3"/>
	</g>
	<g>
		<ellipse class="st4" cx="128.1" cy="264.9" rx="4.8" ry="9"/>
	</g>
	<g>
		<ellipse class="st5" cx="128.1" cy="264.9" rx="1.8" ry="3.4"/>
	</g>
	<g>
		<rect x="119.5" y="263.8" class="st5" width="8" height="2.2"/>
	</g>
	<g>
		<path class="st15" d="M140.4,290.1l86-11.2c0,0,3.5,1.4,4.1,4.9c0.6,3.9-0.4,5.7-2.3,6.3H140.4z"/>
	</g>
	<g>
		<g>
			<g>
				<path class="st3" d="M187.4,280.5c-1.5-1-8.3-4.2-8.3-4.2s-4.5-6.4-5.8-7.9c-0.6-0.7-1.3-1.4-1.3-1.4c-0.7-0.7-2.4-1.1-4.9-1.5
					c0.8,1.9,5.7,8.4,5.7,8.1c0.9,1.5,2.1,3.3,3.5,4.8c1.5,1.7,2.5,2.7,4.9,5c2.4,2.2,7.5,0.6,7.5,0.6S188.9,281.5,187.4,280.5z"/>
			</g>
		</g>
		<g>
			<path class="st15" d="M140.4,290.1l86-11.2c0,0,3.5,1.4,4.1,4.9c0.6,3.9-0.4,5.7-2.3,6.3H140.4z"/>
		</g>
		<g>
			<g>
				<g>
					<path class="st16" d="M140.1,359c-1.9-0.4,0.4-2.6,2-2.9c-0.4,0.2-1,0.5-0.3,0.7c1,0.2,2.3-0.6,3-1.2c0.2,0.4,0.3,1,0.3,1.4
						C145,357.5,141.5,359.4,140.1,359z"/>
				</g>
			</g>
			<g>
				<g>
					<path class="st17" d="M141.8,357.1c-0.7-0.1-0.3-0.8,0.2-1.1c1.7-1,1.6-1.6,1.6-1.6h0.8c0,0,0.3,1.1,0.4,1.2
						C144.3,356.2,143.3,357.3,141.8,357.1z"/>
				</g>
			</g>
		</g>
		<g>
			<g>
				<g>
					<path class="st16" d="M167.7,358.3c0.3-2-2.3-1.8-3.8-2.1c0.4,0.3,0.9,0.6,0.2,0.8c-0.9,0.3-3-0.1-3.6-0.7
						c-0.2,0.5-0.3,1.2-0.3,1.7C160.3,358.5,167.7,358.9,167.7,358.3z"/>
				</g>
			</g>
			<g>
				<g>
					<path class="st17" d="M164.2,357c0.6-0.2,0.8-0.6-0.1-0.8c-0.9-0.2-1.6-0.5-1.7-0.5c-0.4-0.2-0.5-0.8-0.5-0.8h-0.8
						c0,0-0.3,1.3-0.4,1.5C161.2,356.9,163.3,357.3,164.2,357z"/>
				</g>
			</g>
		</g>
		<g>
			<g>
				<path class="st18" d="M169.3,290.3c-1.5-4.1-2.8-7-3.7-7.5c-4.9-2.1-11.9-5.1-12.8-4.9c-0.9,0.5-6.5,8.9-7.5,14.2
					c-2.4,12.8-2.4,57.5-2.5,62c0,0.2,0.1,0.4,0.4,0.4l1.3,0.2c0.2,0,0.4-0.1,0.5-0.3c0.8-2.7,6.5-20.8,9.6-36.4
					c2.1-10.7,3.5-19.9,4-20.2c1.5,4.7,1.2,48.4,2.1,56.9c0.2,1.4,2.8,0.3,2.8-0.8c0-5.1,6.3-21.8,8-38.3
					C172.7,304.4,171.6,296.5,169.3,290.3z"/>
			</g>
		</g>
		<g>
			<g>
				<path class="st16" d="M169.3,290.3c-1.5-4.1-2.8-7-3.7-7.5c-1.3-0.6-2.8-1.2-4.2-1.8c-1.9-0.8,3.9,12,4.6,29.9
					c0.3,7.2-1.4,16.5-1.9,23.4c-0.6,8.4-1.3,12.8-1.6,16.4c-0.1,1.6-0.6,4.7-0.6,4.7c1.2-0.3,1.6-1.1,1.7-1.5
					c1.2-5.2,6.3-21.8,8-38.3C172.7,304.4,171.6,296.5,169.3,290.3z"/>
			</g>
		</g>
		<g>
			<path class="st19" d="M157.3,266.4c-0.8,2.4-2.5,6.7-5.1,12c0,0-0.4,1.2,4.6,4.1c4.7,2.8,10.4,2.5,10.4,2.5s2.4-3.7,4.4-8.3
				c2.2-4.9,1.7-8.4,0.9-9.2c-0.3-0.3-5.7-4.6-11.2-4.3C159.5,263.4,157.9,264.7,157.3,266.4z"/>
		</g>
		<g>
			<path class="st3" d="M159.5,283.8c3.9,1.4,7.7,1.3,7.7,1.3s2.3-3.8,4.4-8.3c2.4-4.9,1.7-8.3,0.9-9.2c-0.7-0.8-3-2.1-3-2.1
				s1,5.8-1.2,10.2C165.7,280.6,159,283.6,159.5,283.8z"/>
		</g>
		<g>
			<g>
				<path class="st17" d="M171.1,263.9c0,0-1.2,2.6-1.6,2.7c-0.4,0.1-1.5-0.2-1.6-1.1c-0.1-0.9,1.8-2.6,1.8-2.6L171.1,263.9z"/>
			</g>
			<g>
				<path class="st20" d="M170.2,265.8c-0.6-0.2-1.2-0.5-1.6-1.6c0.3-0.4,0.4-0.5,0.7-0.8l1.5,1.1
					C170.7,264.9,170.4,265.4,170.2,265.8z"/>
			</g>
		</g>
		<g>
			<path class="st21" d="M176.1,261.4c0,0-1.7,3.4-3.1,3.4c-1.2,0,0.9-4.1,0.9-4.1L176.1,261.4z"/>
		</g>
		<g>
			<path class="st17" d="M173.7,264.1c0.3-0.2,0.7-1.4,1-2.4c0.3-0.8-0.2-1.7-1-2c-1.3-0.4-2.7-0.8-3.2-0.6c-0.7,0.2-1.1,1-1.3,1.6
				c-0.3,0.6-0.5,1.8-0.3,2.5c0.2,0.6,1,1.4,1.6,1.6C172.2,265.5,172.9,265.2,173.7,264.1z"/>
		</g>
		<g>
			<path class="st21" d="M172.8,257.4c0-0.1-2.1-1.3-3.3,0.3c-0.7,1-0.7,4.4-0.7,4.4s1.6-2.6,3.4-1.7
				C173.3,261,172.8,257.4,172.8,257.4z"/>
		</g>
		<g>
			<path class="st21" d="M173.4,261.3c0,0,3.7,1.8,6-1c2.4-2.8,0.8-5.1,0.8-5.1s-0.6,2-1.7,2.5c0,0,0.1-1.3-0.2-1.7
				c0,0-0.6,1.5-1.7,1.8c-1.1,0.3-3.8-3.3-5.6,0.1C170.2,259.9,173.4,261.3,173.4,261.3z"/>
		</g>
		<g>
			<path class="st17" d="M189.5,283.6c0,0,1.1,0.1,1.4,0.3c0.3,0.2-2.6,0.3-2.6,0.3L189.5,283.6z"/>
		</g>
		<g>
			<g>
				<path class="st17" d="M179.9,286c0,0,0.3-0.2,0.5-0.4c0.3-0.3,0.5-0.5,0.3-0.5s-0.5,0.1-0.8,0.3c-0.7,0.3-1.3,0.9-0.7,0.9
					C179.7,286.2,179.9,286,179.9,286z"/>
			</g>
			<g>
				<path class="st17" d="M178.5,286.3c0-0.1,0.1-0.2,0.2-0.2c0.4-0.2,1.3-0.5,1.7-0.5c0.5-0.1,2,0.4,2.1,0.7s-0.6,0.2-0.6,0.2
					s0.8,0,0.9,0.4c0,0.4-1.2,0.4-1.2,0.4s0.5,0.4,0.2,0.4c-0.2,0-0.9,0-1.4,0c-0.1,0-0.7-0.1-0.8-0.1c-0.4-0.2-1.2-0.5-1.2-0.6
					C178.3,286.9,178.4,286.5,178.5,286.3z"/>
			</g>
		</g>
		<g>
			<path class="st19" d="M162.3,263.6c-0.3-0.6-2.3,0.1-2.7,0.7c-1,1.3-1.3,2.1-2.2,4.5c-1.3,3.7-1.2,11.3,1.3,15.3
				c1.9,3,16.2,7.8,19.5,3.7c1.2-1.6,0.6-2.7,0.6-2.7l-16.7-5.5l0.9-10.1C163,269.6,163.6,265.9,162.3,263.6z"/>
		</g>
		<g>
			<path class="st3" d="M157.4,268.8c-0.3,1.3-0.4,2.6-0.5,3.9c0,1.3,0,2.6,0.1,3.9s0.3,2.6,0.5,3.8c0.3,1.3,0.6,2.5,1.2,3.7
				c-0.8-1-1.4-2.3-1.7-3.6c-0.4-1.3-0.6-2.6-0.7-3.9c-0.1-1.3-0.1-2.7,0.1-4C156.5,271.4,156.9,270,157.4,268.8z"/>
		</g>
		<g>
			<path class="st3" d="M166,280.9c-0.7-0.2-1.3-0.3-2-0.5s-1.3-0.4-2-0.5c-0.1,0-0.2-0.1-0.2-0.2l0,0c0.1-1.7,0.2-3.4,0.3-5
				c0.1-1.7,0.3-3.4,0.5-5l0,0l0,0c0.2-1,0.2-2,0.2-3c0-0.5-0.1-1-0.2-1.5c-0.1-0.5-0.2-1-0.5-1.4c0.6,0.8,0.9,1.9,1,2.9
				c0.1,0.5,0.1,1,0.1,1.5s0,1-0.1,1.6l0,0c-0.1,1.7-0.2,3.4-0.4,5c-0.1,1.7-0.3,3.3-0.5,5l-0.2-0.2c0.6,0.2,1.3,0.5,1.9,0.7
				C164.7,280.4,165.3,280.7,166,280.9z"/>
		</g>
		<g>
			<g>
				<path class="st17" d="M188.2,284c-0.1-0.3,0.4-0.6,0.4-0.6c0.7-0.5,1.5-1,2.3-0.8c1.2,0.3,1.9,0.6,1.6,0.9c-0.3,0.3-1.5,0-2,0.1
					S188.3,284.6,188.2,284z"/>
			</g>
		</g>
		<g>
			<path class="st22" d="M180.2,255.2c-0.1,0.5-0.3,1-0.5,1.5s-0.5,0.9-1.1,1.2c-0.1,0-0.2,0-0.2-0.1c0,0,0,0,0-0.1l0,0
				c0-0.3,0-0.6,0-0.8c0-0.1,0-0.3-0.1-0.4c0-0.1-0.1-0.2-0.1-0.3l0.3-0.1c-0.3,0.6-0.6,1.2-1.2,1.7c-0.1,0.1-0.3,0.2-0.5,0.3
				c-0.1,0-0.2,0-0.3,0.1c-0.1,0-0.2,0-0.3-0.1c-0.4-0.1-0.6-0.3-0.9-0.4c-0.6-0.3-1.1-0.6-1.7-0.8c-0.6-0.2-1.2,0-1.6,0.3l0,0
				c-0.1,0.1-0.1,0.1-0.2,0.1c-0.5-0.2-1.1-0.1-1.6,0.1c-0.5,0.3-0.8,0.7-0.9,1.3c-0.3,1.1-0.4,2.3-0.5,3.5
				c-0.1-0.6-0.1-1.2-0.1-1.8c0-0.6,0.1-1.2,0.2-1.8c0.1-0.6,0.4-1.2,1-1.6s1.3-0.4,1.9-0.2l-0.2,0.1c0.5-0.5,1.4-0.7,2-0.5
				c0.7,0.2,1.3,0.5,1.8,0.9c0.3,0.2,0.6,0.3,0.8,0.4c0.1,0,0.1,0,0.2,0c0,0,0.1,0,0.2,0c0.1,0,0.3-0.1,0.4-0.2
				c0.5-0.3,0.8-0.9,1.1-1.4l0,0c0-0.1,0.2-0.1,0.3-0.1c0,0,0.1,0,0.1,0.1c0.1,0.2,0.2,0.3,0.2,0.5s0,0.3,0,0.5c0,0.3,0,0.6,0,0.9
				l-0.2-0.1c0.4-0.2,0.8-0.6,1-1C179.8,256.2,180,255.7,180.2,255.2z"/>
		</g>
	</g>
	<g>
		<g>
			<rect x="114.2" y="352.8" class="st4" width="12.4" height="3.9"/>
		</g>
		<g>
			<rect x="115.1" y="228" class="st5" width="3.6" height="124.8"/>
		</g>
		<g>
			<rect x="111" y="352.8" class="st5" width="12.4" height="3.9"/>
		</g>
		<g>
			<rect x="118.7" y="228" class="st4" width="1.8" height="124.8"/>
		</g>
	</g>
</g>
<g>
	<g>
		<path class="st18" d="M429.4,244.5c0.9,0.5,1.8-2.3,5.6-0.6c3.8,1.6,4.8,7.9,2.7,9.9c0,0,1.5,6.1-5,13.6c0,0-5.1,11.4-13.9,11.9
			c-8.9,0.4-22.5-4.4-20.2-16.8s13.6-8.8,13.6-8.8s0.4-4.3,5.2-2.9C417.5,250.8,419.4,238.7,429.4,244.5z"/>
	</g>
	<g>
		<path class="st23" d="M398.7,262.5c0.2-1.5,0.7-3,1.4-4.4c0.7-1.4,1.8-2.7,3.1-3.5c1.3-0.9,2.9-1.4,4.5-1.5s3.2,0,4.7,0.4
			l-0.4,0.3c0.1-0.6,0.3-1.2,0.6-1.8c0.3-0.5,0.8-1,1.4-1.3s1.2-0.4,1.8-0.4c0.3,0,0.6,0.1,0.9,0.1l0.9,0.2l-0.4,0.3
			c0.3-1.5,0.7-2.8,1.4-4.1c0.7-1.3,1.7-2.5,3-3.3s2.9-0.9,4.4-0.6c0.7,0.2,1.4,0.4,2.1,0.7c0.3,0.2,0.7,0.3,1,0.5l0.5,0.3
			c0.1,0.1,0.1,0,0.2,0.1h0.1c0.2-0.1,0.5-0.3,0.9-0.5c0.3-0.2,0.7-0.4,1-0.5c0.7-0.2,1.5-0.2,2.3,0c0.7,0.2,1.4,0.5,2,0.9
			s1.1,1,1.6,1.6c0.4,0.6,0.8,1.3,1,2s0.4,1.4,0.4,2.1c0.1,0.7,0,1.5-0.1,2.2c-0.2,0.7-0.4,1.4-1,1.9c0.5-0.5,0.7-1.2,0.8-1.9
			c0.1-0.7,0.1-1.4,0-2.1c-0.2-1.4-0.7-2.8-1.5-3.9c-0.4-0.6-0.9-1-1.5-1.4c-0.6-0.3-1.2-0.6-1.9-0.8c-0.7-0.1-1.4-0.2-2,0.1
			c-0.3,0.1-0.6,0.3-0.9,0.4c-0.3,0.2-0.5,0.4-1,0.6c-0.1,0-0.3,0-0.4,0s-0.3-0.1-0.3-0.1l-0.5-0.2c-0.3-0.2-0.6-0.3-0.9-0.5
			c-0.6-0.3-1.3-0.5-2-0.6c-1.3-0.3-2.8-0.1-3.9,0.5c-1.2,0.7-2.1,1.8-2.7,3c-0.7,1.2-1.1,2.6-1.4,3.9c0,0.2-0.2,0.3-0.4,0.3l0,0
			l0,0l-0.8-0.2c-0.3,0-0.5-0.1-0.8-0.1c-0.5,0-1.1,0.1-1.5,0.3c-0.5,0.2-0.9,0.6-1.1,1.1c-0.3,0.5-0.5,1-0.5,1.5
			c0,0.2-0.2,0.3-0.4,0.3l0,0c-1.4-0.4-3-0.6-4.5-0.5s-3,0.5-4.3,1.3c-0.6,0.4-1.2,0.9-1.7,1.4c-0.5,0.6-1,1.2-1.4,1.8
			C399.5,259.5,399,261,398.7,262.5z"/>
	</g>
	<g>
		<g>
			<g>
				<path class="st17" d="M426.5,284.7c-2.9-5.6-6-12.4-7.2-12.9c-3.4,0.2-6.8-0.1-8.1-0.1c-1.1,0.6-8,6.7-9.8,13
					c-4.5,15.3,0.6,78.2,0.6,78.2l1.2-0.1c0,0,4.5-27.3,8.7-46.8c2.7-12.4,6.3-24.3,6.4-24.4c1.8,5.4,1.1,60.5,3,70.1
					c0.3,1.6,0.8,2,0.9,0.7C423.1,353.1,433.8,299,426.5,284.7z"/>
			</g>
		</g>
	</g>
	<g>
		<path class="st10" d="M409.8,270.9c0,0,10.6,8.8,14.2,7.7c0,0,5.1,6.3,5.3,19.8c0.2,12.8,0.2,25.1,0.2,25.1s-11.6,4.7-30,1.6
			C399.5,325.1,392.2,283.2,409.8,270.9z"/>
	</g>
	<g>
		<g>
			<path class="st16" d="M428.5,365.7c0-1.2-2.5-1.7-4.1-2c0.4,0.2,1,0.6,0.3,0.8c-1,0.3-3.1,0-3.8-0.6c-0.2,0.5-0.3,1.2-0.3,1.6
				C420.7,366.1,428.5,366.2,428.5,365.7z"/>
		</g>
		<g>
			<path class="st17" d="M424.7,364.5c0.7-0.2,0.9-0.6-0.2-0.8c-0.9-0.1-1.7-0.4-1.8-0.5c-0.4-0.2-0.6-0.8-0.6-0.8h-0.8
				c0,0-0.3,1.3-0.4,1.4C421.6,364.5,423.8,364.8,424.7,364.5z"/>
		</g>
	</g>
	<g>
		<g>
			<path class="st16" d="M409,365.6c0-1.2-2.4-1.7-3.9-2c0.4,0.2,0.9,0.6,0.3,0.8c-0.9,0.2-3-0.1-3.6-0.7c-0.2,0.5-0.3,1.1-0.3,1.6
				C401.5,365.7,409,366.1,409,365.6z"/>
		</g>
		<g>
			<path class="st17" d="M405.4,364.3c0.6-0.2,0.9-0.6-0.1-0.7c-0.9-0.1-1.6-0.5-1.7-0.5c-0.4-0.2-0.6-0.8-0.6-0.8h-0.8
				c0,0-0.3,1.2-0.4,1.4C402.4,364.2,404.5,364.5,405.4,364.3z"/>
		</g>
	</g>
	<g>
		<path class="st11" d="M409.2,271.1c0,0,2.8,1.6,8.7,3c0.2,0.1,0.7,0.2,0.7,0.2s-5.6,13.5-6,18.4c-1.4,15,4.7,33.3,4.7,33.3
			s-0.6,0-0.9,0.1c-4.6,0.3-14.6,0.4-21.4-1.7C395.2,324.3,391.7,283.5,409.2,271.1z"/>
	</g>
	<g>
		<g>
			<path class="st24" d="M409.2,271.5c2.1,2.5,7.4,7.8,16,8.9c2.2-2.1,4.4-6.7,5.9-10.9c1.1-3.2,2.6-4.3,1.2-6.3
				c-0.1-0.1-1-1.5-3.3-3.1c-4.7-3.4-9.4-4.6-12-4.2C415,256.1,408.9,271.2,409.2,271.5z"/>
		</g>
	</g>
	<g>
		<g>
			<path class="st8" d="M409.2,271.5c1.2,1.5,3.6,3.8,7.1,5.9c0.3,0.2,0.9,0.7,0.9,0.7s1.6-7.7,3.1-10.4c3-5.6,6.7-8.8,6.1-9.1
				c-0.1-0.1-0.3-0.2-0.4-0.2c-3.6-1.9-6.9-2.6-9-2.4C415,256.1,408.9,271.2,409.2,271.5z"/>
		</g>
	</g>
	<g>
		<g>
			<g>
				<path class="st17" d="M427.4,255.7c0,0-2.6,2.6-2.6,3.1c-0.1,0.5,0.3,1.6,1.3,1.2c1-0.4,2.5-3.3,2.5-3.3L427.4,255.7z"/>
			</g>
		</g>
		<g>
			<g>
				<g>
					<g>
						<path class="st20" d="M428.8,252.8c0,0-2.7,4.1-3,4.7c-0.3,0.6,0.4,2,1.5,1.4c1.1-0.7,2.8-5.1,2.8-5.1L428.8,252.8z"/>
					</g>
				</g>
			</g>
		</g>
	</g>
	<g>
		<g>
			<path class="st17" d="M426.6,253.7c0.3-0.8,2.8-2.8,2.8-2.8c1.6-1.1,3.5,1.2,4,1.8c0.5,0.7,0.8,1.3,1,2.2c0.2,1-0.7,1.8-1.3,2.4
				c-0.6,0.6-2,1.5-2.9,1.7c-0.8,0.1-2.2-0.5-2.8-1.1C425.8,256.2,425.7,255.3,426.6,253.7z"/>
		</g>
	</g>
	<g>
		<path class="st18" d="M435.6,252.9c0,0-7,1.6-9.1-0.1c-2-1.6,1.3-6.5,3.4-5.5C432.1,248.4,435.6,252.9,435.6,252.9z"/>
	</g>
	<g>
		<path class="st23" d="M435.7,252.5c-0.9,0.6-1.9,0.9-3,1.1c-1.1,0.2-2.1,0.2-3.2,0.2s-2.1-0.1-3.2-0.4c-0.5-0.1-1-0.3-1.5-0.6
			s-1-0.6-1.2-1.1c0.3,0.4,0.8,0.6,1.3,0.8s1,0.3,1.5,0.4c1,0.2,2,0.2,3.1,0.3c1,0,2.1,0,3.1-0.1C433.7,253,434.7,252.9,435.7,252.5
			z"/>
	</g>
	<g>
		<g>
			<path class="st5" d="M459.5,359.1l-6.2-1.9c-1.1-0.3-2.2-0.9-3.1-1.7l-41.1-51.7l1-1.2l41.1,51.7c0.7,0.7,1.6,1.1,2.5,1.4
				l6.2,1.9L459.5,359.1z"/>
		</g>
	</g>
	<g>
		<rect x="334" y="218.2" class="st19" width="13.5" height="147.5"/>
	</g>
	<g>
		<rect x="347.5" y="218.2" class="st5" width="25.8" height="147.5"/>
	</g>
	<g>
		<rect x="350.1" y="225.9" class="st3" width="7.3" height="51.8"/>
	</g>
	<g>
		<rect x="357.4" y="225.9" class="st4" width="12.5" height="51.8"/>
	</g>
	<g>
		<rect x="368.2" y="302.7" class="st3" width="8" height="63"/>
	</g>
	<g>
		<rect x="376" y="302.7" class="st5" width="13" height="63"/>
	</g>
	<g>
		<path class="st4" d="M459.4,360.2l-2.3-1.2c-0.4-0.2-0.6-0.7-0.5-1.2l0.3-1c0.1-0.5,0.6-0.7,1-0.6l2.5,0.6
			c0.5,0.1,0.8,0.7,0.6,1.2l-0.5,1.6C460.4,360.2,459.9,360.5,459.4,360.2z"/>
	</g>
	<g>
		<g>
			<path class="st3" d="M458.4,365l-6.7-2c-1.2-0.4-2.3-1-3.3-1.9l-43.9-55.2l1.1-1.3l43.9,55.2c0.8,0.7,1.7,1.2,2.7,1.5l6.7,2
				L458.4,365z"/>
		</g>
	</g>
	<g>
		<path class="st4" d="M458.3,365.9l-2.3-1.1c-0.4-0.2-0.6-0.7-0.5-1.2l0.3-1c0.1-0.5,0.6-0.7,1-0.6l2.5,0.6
			c0.5,0.1,0.8,0.7,0.6,1.2l-0.5,1.6C459.3,365.9,458.7,366.2,458.3,365.9z"/>
	</g>
	<g>
		<rect x="359.2" y="231.1" class="st5" width="8.7" height="29.9"/>
	</g>
	<g>
		<rect x="359.2" y="262.3" class="st8" width="8.7" height="1.7"/>
	</g>
	<g>
		<path class="st15" d="M362.5,267.3c0,1-0.7,1.9-1.6,1.9s-1.6-0.8-1.6-1.9c0-1,0.7-1.9,1.6-1.9S362.5,266.2,362.5,267.3z"/>
	</g>
	<g>
		<path class="st4" d="M386.5,296.4c-0.5,0-1-0.1-1.5-0.2c-2.9-0.7-5.2-3.1-6.3-6.5c-0.9-3-0.7-5.4-0.7-5.5l1-41.5
			c0.1-3.9-1.2-7.6-3.7-10.1c-1.8-1.8-4-2.8-6.3-2.8c-0.3,0-0.5-0.2-0.5-0.5s0.2-0.5,0.5-0.5c2.6,0,5.1,1.1,7,3.1
			c2.6,2.7,4.1,6.7,4,10.9l-1,41.6c0,0.1-0.2,2.3,0.6,5.1c1,3,3,5.2,5.5,5.8c2,0.5,4-0.2,5.6-1.8l0.1-0.1c0.2-0.2,0.5-0.2,0.7,0
			s0.2,0.5,0,0.7l-0.1,0.1C390.1,295.6,388.4,296.4,386.5,296.4z"/>
	</g>
	<g>
		<path class="st14" d="M444.6,301.1l-68.5-1.4c-2.7,0-9.1,2.8-9.1,2.8c-0.4,0.4-0.3,2.9,0,3.3c0.3,0.3,0.7,0.5,1.3,0.5l73.2,1.6
			c1.4,0,7.3,0.1,8.7,0c5.2-0.3,16.8-0.8,17.2-2.5c0.1-0.3,0.2-2.4,0.2-2.4s-11.7-0.9-16.3-1.5C449.1,301.3,446.9,301.1,444.6,301.1
			z"/>
	</g>
	<g>
		<path class="st15" d="M445.1,299l-68.5-1.4c-2.7,0-5.3,0.9-6.9,2.4l-2.5,2.4c-0.8,0.8-0.1,1.9,1.2,1.9l73.6,1.5
			c1.4,0,7.3,0.1,8.7,0c5.2-0.3,17.2-1,16.9-2.8c-0.3-1.6-10.3-3-15.8-3.6C449.5,299.1,447.3,299,445.1,299z"/>
	</g>
	<g>
		<g>
			<path class="st4" d="M429,300.4c0,0,0.3,0.6,0.4,1c0.1,0.3-0.1,0.5-0.3,0.6c-1.3,0.2-5.4,0.6-16.1,0.6c-13.7,0-16.2-1.4-16.7-1.8
				c-0.5-0.4-0.5-1.6-0.5-1.6L429,300.4z"/>
		</g>
		<g>
			<path class="st25" d="M429.2,300.2l-0.7-1.3l-1.4-0.1l-1.5-2.3l0.4-1.1c0,0-4.7-6.3-6.5-8c-1.7-1.7-5.3-4-5.3-4
				s-6.6-3.4-14.8-4.5c-1.1-0.2-3.4-0.8-4.5,1.1s-7.5,13.9-6.6,14.9c0.9,0.9,1.8,0.7,4.4,1.8c1.9,0.8,2.7,2.1,3,2.7
				c0.1,0.2,0.3,0.4,0.5,0.5c0.7,0.2,2.3,0.6,3.9,0.8c2.5,0.4,12,0.9,17.8,0.8c5,0,9.4-0.3,10.9-0.6
				C429.2,300.7,429.4,300.4,429.2,300.2z M412.9,291.3c-2.5,0.1-8.9-1.7-8.9-1.7l-7.7-2c-0.4-0.1-0.6-0.5-0.5-0.8
				c0.5-1.6,1.3-3.2,1.6-3.9c0.1-0.2,0.4-0.4,0.6-0.4c4.1,0.3,11.9,2.7,14.1,4.4c1.4,1.1,1.7,2.5,1.7,3.4
				C413.9,290.8,413.5,291.3,412.9,291.3z"/>
		</g>
		<g>
			<path class="st15" d="M426.3,295.5c0-0.2-0.8-0.8-0.8-0.8l-0.6,1.4c-0.2,0.4-0.1,0.8,0.1,1.2l1.3,1.8c0.2,0.3,0.6,0.5,1,0.5
				l1.6-0.1l-0.3-0.6c-0.1-0.2-0.3-0.3-0.5-0.4h-0.6c-0.2,0-0.4-0.1-0.5-0.3l-1-1.5c-0.1-0.2-0.1-0.4,0-0.6
				C426,296.1,426.3,295.7,426.3,295.5z"/>
		</g>
		<g>
			<path class="st14" d="M419.9,287.6l-0.2-2.2l-5-1.9c0,0,0.6,1,1.9,2.2C417.9,286.8,419.9,287.6,419.9,287.6z"/>
		</g>
		<g>
			<path class="st15" d="M414.6,283.5c0,0,1,0.8,2.4,1.4c1.4,0.5,2.6,0.8,2.7,0.5c0.1-0.2-1-0.8-2.4-1.4
				C415.9,283.5,414.6,283.5,414.6,283.5z"/>
		</g>
		<g>
			<path class="st15" d="M414.8,287c-6.2-4.9-16.6-6.6-18-5.9s-4.4,8.9-4.5,10c-0.1,1.2,0.7,0.9,4.1,1.5c3.2,0.6,18.3,2.9,21.8,3
				c0.4,0,0.8-0.1,1.2-0.2c0.4-0.2,0.8-0.5,0.8-1.1C420.3,294.4,421,291.9,414.8,287z M412.9,291.3c-2.5,0.1-8.9-1.7-8.9-1.7l-7.7-2
				c-0.4-0.1-0.6-0.5-0.5-0.8c0.5-1.6,1.3-3.2,1.6-3.9c0.1-0.2,0.4-0.4,0.6-0.4c4.1,0.3,11.9,2.7,14.1,4.4c1.4,1.1,1.7,2.5,1.7,3.4
				C413.9,290.8,413.5,291.3,412.9,291.3z"/>
		</g>
		<g>
			<path class="st26" d="M408.5,290.5c-0.1,0.4-1.7,0.4-3.7,0c-1.9-0.4-3.4-1.1-3.3-1.5l0.2-0.9l7,1.6L408.5,290.5z"/>
		</g>
		<g>
			<path class="st25" d="M401.7,288c-0.1,0.4,1.4,1.1,3.3,1.5c1.9,0.4,3.6,0.4,3.7,0c0.1-0.4-1.4-1.1-3.3-1.5
				C403.5,287.6,401.8,287.6,401.7,288z"/>
		</g>
	</g>
	<g>
		<g>
			<path class="st24" d="M437.3,288.3c2.5,2.5,8.9,11.3,8.9,11.3c2.8,2.1,8.8-0.9,7.3-3.9c-2.6-5.7-13.7-13.9-13.7-13.9
				S430.7,281.6,437.3,288.3z"/>
		</g>
	</g>
	<g>
		<g>
			<path class="st24" d="M441.8,285.9c0,0-6.4-16.8-9.3-22.3c-0.7-1.3-5.8-2-5.8-2s0,7.5,8.4,23.8L441.8,285.9z"/>
		</g>
	</g>
	<g>
		<g>
			<path class="st17" d="M451.2,298.5c0.1-0.1,0.3-0.2,0.4-0.1c0.4,0.1,2-0.1,2.8,0.2c0,0,1.2,0.4,1.4,1.1c0,0-0.1,0.2-0.4,0
				c0,0,0.8,0.7,0.7,1s-0.5,0.1-0.5,0.1s0.1,0.3-0.2,0.4c-0.2,0.1-0.8-0.3-1.5-0.4c-0.5-0.1-2.3-0.3-2.5-0.8c0,0-0.3-0.5-0.5-0.6
				C450.9,299.2,451,298.8,451.2,298.5z"/>
		</g>
		<g>
			<path class="st17" d="M452.9,300.4c0,0,1.2,0.9,0.8,1.2c-0.4,0.3-2.2-1.6-2.2-1.6L452.9,300.4z"/>
		</g>
	</g>
	<g>
		<g>
			<path class="st17" d="M404.2,279.4c0.1-0.1,0.3-0.2,0.4-0.1c0.4,0.1,2-0.1,2.8,0.2c0,0,1.2,0.4,1.4,1.1c0,0-0.1,0.2-0.4,0
				c0,0,0.8,0.7,0.7,1c-0.1,0.3-0.5,0.1-0.5,0.1s0.1,0.3-0.2,0.4c-0.2,0.1-0.8-0.3-1.5-0.4c-0.5-0.1-2.3-0.3-2.5-0.8
				c0,0-0.3-0.5-0.5-0.6C403.8,280.1,404,279.7,404.2,279.4z"/>
		</g>
		<g>
			<path class="st17" d="M405.9,281.3c0,0,1.2,0.9,0.8,1.2c-0.4,0.3-2.2-1.6-2.2-1.6L405.9,281.3z"/>
		</g>
	</g>
	<g>
		<g>
			<path class="st8" d="M394.9,271.7c0.8,3,4.2,8.9,4.2,8.9c2.7,1.6,8.7-1,7.4-3.5c-2.4-4.6-6.9-15.7-6.9-15.7
				S392.6,263.7,394.9,271.7z"/>
		</g>
	</g>
	<g>
		<g>
			<path class="st8" d="M395.4,269.6c0,0,17.4-5.1,22.6-8.4c1.1-0.7-1.9-5.6-0.3-5.3c0,0-3.4-1-18.9,5.8L395.4,269.6z"/>
		</g>
	</g>
	<g>
		<polygon class="st27" points="436.3,348 428.1,348 426.5,305.5 437.9,305.9 		"/>
	</g>
	<g>
		<polygon class="st27" points="452.1,348 444,348 442.4,305.9 453.8,305.9 		"/>
	</g>
	<g>
		<polygon class="st28" points="426.5,305.5 432.8,298.7 441.1,298.9 437.9,305.9 		"/>
	</g>
	<g>
		<polygon class="st28" points="442.4,305.9 444.3,298.9 453.8,299.7 453.8,305.9 		"/>
	</g>
	<g>
		<path class="st28" d="M438.6,300.8h8.3l0.3-1.7c0,0-3.5-0.4-8-0.3c-4.5,0.2-4.5,0.2-4.5,0.2L438.6,300.8z"/>
	</g>
</g>
<g>
	<g>
		<path class="st8" d="M63.9,256.1c0-0.1-2.2-4.7-2.4-5.3c-0.2-0.7-0.5-1.7-0.3-2.6c0.3-1.8,2.9-3.6,4.8-2.8c1,0.4,2.7,2.2,3.8,0.4
			c0,0,0.4-1.4,0.6,0.1c0.3,1.9-0.4,2.9-0.4,2.9s3,4.8-0.2,7.2C67.4,257.6,64.6,257.6,63.9,256.1z"/>
	</g>
	<g>
		<path class="st29" d="M63.9,256.1c-0.8-1.4-1.6-2.8-2.3-4.2c-0.2-0.4-0.4-0.7-0.5-1.1c-0.1-0.4-0.2-0.8-0.3-1.2s-0.1-0.8,0-1.3
			c0.1-0.4,0.2-0.9,0.4-1.2c0.5-0.7,1.1-1.3,1.9-1.7c0.8-0.4,1.6-0.6,2.5-0.4c0.4,0.1,0.8,0.4,1.1,0.6c0.3,0.2,0.6,0.4,1,0.6
			c0.3,0.2,0.7,0.3,1.1,0.2s0.7-0.3,0.9-0.6c-0.2,0.3-0.5,0.7-0.9,0.8s-0.9,0-1.2-0.1c-0.8-0.3-1.4-0.9-2.1-1s-1.4,0.1-2.1,0.4
			c-0.6,0.4-1.2,0.9-1.6,1.5c-0.2,0.3-0.3,0.6-0.4,1c0,0.4,0,0.7,0,1.1c0,0.4,0.1,0.7,0.2,1.1c0.1,0.3,0.2,0.7,0.4,1.1
			c0.3,0.7,0.6,1.5,0.9,2.2C63.3,254.6,63.6,255.4,63.9,256.1z"/>
	</g>
	<g>
		<g>
			<path class="st21" d="M79.6,278.3c0,0.2,3.2,4.1,6.2,8.8c3.3,5.3,2.8,10.8,2.9,19.7c0,9.4-5.1,37.8-5.4,46.7
				c0,1.2-0.6,1.5-0.8,0.1c-1.3-9.2-8.6-58.7-8.6-58.7l-3.2,57.2c0,0-3.3,1.5-3.3,0c0.1-10.1-7.9-51.5-7-56.4
				c1.8-10.4,3.7-13.3,4-16.1C66.1,280.3,76.3,280.2,79.6,278.3z"/>
		</g>
	</g>
	<g>
		<g>
			<path class="st30" d="M79.6,278.3c0,0.2,3.2,4.1,6.2,8.8c3.3,5.3,2.8,10.8,2.9,19.7c0,9.4-5.1,37.8-5.4,46.7
				c0,1.2-0.6,1.5-0.8,0.1c-1.3-9.2-8.6-58.7-8.6-58.7l-2.5-15c0,0,0.1,0,0.2,0C74.7,279.8,78,279.3,79.6,278.3z"/>
		</g>
	</g>
	<g>
		<g>
			<g>
				<path class="st18" d="M62.2,355.5c-0.2-2.1,1.9-1.4,3.3-1.9c-0.4,0.3-0.8,0.7-0.1,0.8c1,0.2,3-0.3,3.5-1
					c0.3,0.5,0.4,1.2,0.4,1.7C69.3,355.6,62.3,356.7,62.2,355.5z"/>
			</g>
		</g>
		<g>
			<g>
				<path class="st17" d="M65.3,354.4c-0.6-0.1-0.3-0.5,0.1-0.8c0.8-0.3,1.5-0.6,1.7-0.6c0.4-0.2,0.5-0.6,0.5-0.6l0.4-0.1
					c0,0-0.2,0.6,0.6,0.8c0.1,0,0.2,0.2,0.3,0.4C68.3,354.1,66.3,354.5,65.3,354.4z"/>
			</g>
		</g>
	</g>
	<g>
		<g>
			<path class="st19" d="M65.8,259.8c0,0-10.5,2.9-12.1,9.6c-0.3,1.1,4.4,2.6,4.4,2.6l5.9-7.3L65.8,259.8z"/>
		</g>
	</g>
	<g>
		<g>
			<path class="st19" d="M53.1,271.7c-0.3,2.3-0.5,7.2-0.5,10.3c-0.1,2.8,4.4,2,4.4,2s1.7-3,1.7-4.4c0-1.9-0.1-8.3-0.1-8.3
				S54.3,263.2,53.1,271.7z"/>
		</g>
	</g>
	<g>
		<g>
			<path class="st19" d="M62.4,261.1c1.9-1,7.8-3.7,14.2-3.4c3.3,0.2,6.2,2.4,6.2,2.4s-3.6,16.3-3.3,18.2c-3.3,1.9-13.5,2-15.3,1.3
				c0-0.2,0-0.3-0.1-0.4C61.6,273.1,62.4,261.1,62.4,261.1z"/>
		</g>
	</g>
	<g>
		<g>
			<path class="st18" d="M69.5,256.2L69.5,256.2L69.5,256.2z"/>
		</g>
	</g>
	<g>
		<rect x="33.2" y="308.1" class="st5" width="1.9" height="47.8"/>
	</g>
	<g>
		<rect x="35.1" y="308.1" class="st4" width="1.3" height="47.8"/>
	</g>
	<g>
		<rect x="97.9" y="308.1" class="st5" width="2" height="47.8"/>
	</g>
	<g>
		<rect x="99.8" y="308.1" class="st4" width="1.3" height="47.8"/>
	</g>
	<g>
		<rect x="17.2" y="308.1" class="st4" width="1.3" height="47.8"/>
	</g>
	<g>
		<rect x="15.3" y="353.3" class="st4" width="21.2" height="2.7"/>
	</g>
	<g>
		<rect x="81.6" y="308.1" class="st4" width="1.3" height="47.8"/>
	</g>
	<g>
		<rect x="79.6" y="353.3" class="st4" width="21.5" height="2.7"/>
	</g>
	<g>
		<rect x="15.3" y="308.1" class="st5" width="1.9" height="47.8"/>
	</g>
	<g>
		<rect x="79.6" y="308.1" class="st5" width="2" height="47.8"/>
	</g>
	<g>
		<rect x="19.6" y="293.5" class="st4" width="5.9" height="4.5"/>
	</g>
	<g>
		<circle class="st5" cx="19.6" cy="295.6" r="2.1"/>
	</g>
	<g>
		<ellipse class="st4" cx="25.5" cy="295.6" rx="2.1" ry="2.1"/>
	</g>
	<g>
		<path class="st16" d="M101.2,302.4h-24v-4.9h24c1.3,0,2.4,1.1,2.4,2.4l0,0C103.6,301.3,102.5,302.4,101.2,302.4z"/>
	</g>
	<g>
		<rect x="65.3" y="302.4" class="st31" width="35.9" height="7.9"/>
	</g>
	<g>
		<path class="st18" d="M84.6,302.4H16.7c-1.3,0-2.4-1.1-2.4-2.4l0,0c0-1.3,1.1-2.4,2.4-2.4h67.9c1.3,0,2.4,1.1,2.4,2.4l0,0
			C87.1,301.3,86,302.4,84.6,302.4z"/>
	</g>
	<g>
		<polygon class="st32" points="69.8,302.4 44.6,302.4 15.3,302.4 15.3,310.3 44.6,310.3 76.6,310.3 89.8,310.3 89.8,302.4 		"/>
	</g>
	<g>
		<circle class="st4" cx="19.6" cy="295.6" r="1"/>
	</g>
	<g>
		<rect x="93.9" y="279.1" class="st18" width="2.3" height="18.5"/>
	</g>
	<g>
		<rect x="95.2" y="280.2" class="st16" width="2.1" height="17.3"/>
	</g>
	<g>
		<rect x="28" y="293.5" class="st18" width="2.4" height="4"/>
	</g>
	<g>
		<rect x="30.5" y="293.5" class="st16" width="23.8" height="4"/>
	</g>
	<g>
		<g>
			<path class="st33" d="M54.1,289.7L42.6,302c-0.1,0.1,0,0.2,0.1,0.2l12.2-9.7l0.1-1.3l1-1.2L54.1,289.7z"/>
		</g>
		<g>
			<polygon class="st14" points="68.3,297.5 22.5,297.5 38.2,295 76.1,294.6 			"/>
		</g>
		<g>
			<path class="st13" d="M58.1,282.1c-1.2-0.3-2.1,0.1-2.6,0.7c-0.5,0.6-1.1,2-0.4,3.3l0.3,0.4c0,0,0.1,0.5,0,0.9
				c-0.2,0.4-0.7,1.2-0.7,1.2l-0.7,1.1l2,0.1l2.1-2.8c0,0,1.5-0.8,1.8-2c0.2-1-0.2-1.7-0.2-1.7S59.3,282.4,58.1,282.1z M58.1,286.1
				c-0.8,0.6-1.6,0.5-2.1-0.2c-0.5-0.8-0.3-2.2,0.5-2.7s1.9-0.2,2.3,0.5C59.2,284.3,59.1,285.3,58.1,286.1z"/>
		</g>
		<g>
			<path class="st13" d="M63.7,289.6c0,0-0.5-0.7-1.5-0.8c-1.2-0.2-2.5,0.9-2.5,0.9l-3.3,0.8l-0.7,2l1.3-0.2c0,0,0.9-0.2,1.3-0.2
				c0.4,0,0.8,0.3,0.8,0.3l0.3,0.4c0.9,1.1,2.5,1.1,3.2,0.9s1.5-0.9,1.6-2.1C64.5,290.4,63.7,289.6,63.7,289.6z M62.7,292.7
				c-0.8,0.5-2.2,0.2-2.7-0.6c-0.5-0.7-0.2-1.5,0.6-2c1-0.7,2.1-0.4,2.5,0.3C63.7,291.1,63.5,292.2,62.7,292.7z"/>
		</g>
		<g>
			<path class="st34" d="M55.8,292.4l-16.4,4.4c-0.1,0-0.2-0.1-0.1-0.2l14.2-6.3l1.4,0.6l1.5-0.5L55.8,292.4z"/>
		</g>
		<g>
			<path class="st33" d="M53.5,292.3c0.2,0.2,0.5,0.3,0.8,0.1c0.2-0.2,0.3-0.5,0.1-0.8c-0.2-0.2-0.5-0.3-0.8-0.1
				C53.3,291.7,53.3,292,53.5,292.3z"/>
		</g>
	</g>
	<g>
		<g>
			<path class="st17" d="M55.3,282.8c0,0,1.4,1,1.3,0.6c-0.1-0.4,0-0.3,0-0.3s0.6,0.6,0.8,0.3s0-0.5,0-0.5s0.9,0.6,1,0.3
				c0.1-0.3-0.5-1.2-0.7-1.3C57.4,281.7,55.2,282.6,55.3,282.8z"/>
		</g>
	</g>
	<g>
		<g>
			<path class="st17" d="M66,290.4c0,0-0.5,1-1.3,1.3c-0.6,0.2-1.2,0.2-1.2-0.1c0-0.3,0.5-0.2,0.5-0.2s-1,0.3-1-0.2
				c0-0.1,0.7-0.3,0.7-0.3s-0.9,0.2-0.8,0c0.1-0.2,1.3-0.5,1.5-0.5s1-0.7,1.6-0.8C66.1,289.5,66.2,289.9,66,290.4z"/>
		</g>
	</g>
	<g>
		<g>
			<path class="st5" d="M82.8,283.8c-2.9,5-8.2,10.3-14.5,8.5c-2.3-0.7-2.9-3.8-2.9-3.8l10.6-7.9l4.2-15.9l2.5-4.5
				C82.8,260.2,87.2,276.4,82.8,283.8z"/>
		</g>
	</g>
	<g>
		<polygon class="st15" points="68.3,330.9 22.5,330.4 22.5,297.5 68.3,297.5 68.3,312.8 		"/>
	</g>
	<g>
		<g>
			<path class="st5" d="M69.5,258.5c0,0,0.3-0.1,0.5-0.1c2-0.5,4.3-0.7,6.6-0.6c3.3,0.2,6.2,2.4,6.2,2.4s-3.6,16.3-3.3,18.2
				c-1.6,0.9-4.7,1.4-7.7,1.6c-0.2,0-0.5,0-0.5,0s-1.4-7.9-1.6-10.7C69.6,266.6,69.5,258.5,69.5,258.5z"/>
		</g>
	</g>
	<g>
		<g>
			<g>
				<path class="st17" d="M68.6,255.3c0,0,1.8,3.5,1.6,4c-0.1,0.5-0.9,1.4-1.8,0.6c-0.9-0.7-1.4-4.2-1.4-4.2L68.6,255.3z"/>
			</g>
		</g>
		<g>
			<g>
				<path class="st20" d="M69.8,257.9c-0.5,0.5-1.2,0.9-2,0.8c-0.2-0.7-0.4-1.5-0.5-2l1.8-0.6C69.2,256.6,69.5,257.3,69.8,257.9z"/>
			</g>
		</g>
	</g>
	<g>
		<g>
			<path class="st17" d="M65.2,257c-0.5-0.4-1.6-2.4-1.2-3.4c0.5-1.3,1.5-1.4,1.9-1.5c0.7-0.2,1.4-0.5,2.1-0.4s1.1,0.9,1.4,1.5
				s0.6,1.8,0.5,2.5c-0.1,0.6-0.9,1.5-1.5,1.8C66.8,258.2,66.1,258,65.2,257z"/>
		</g>
	</g>
	<g>
		<path class="st3" d="M76.5,279.5c0.3-2.8,0.8-5.5,1.3-8.2c0.6-2.7,1.2-5.4,2-8.1c-0.3,2.8-0.8,5.5-1.3,8.2
			C77.9,274.1,77.3,276.8,76.5,279.5z"/>
	</g>
	<g>
		<path class="st17" d="M65.1,289.9c0,0-1.1-0.1-1.7,0c-0.6,0.1,1.1,0.6,1.1,0.6l0.8-0.6H65.1z"/>
	</g>
	<g>
		<rect x="75.3" y="279.1" class="st16" width="22.1" height="3"/>
	</g>
	<g>
		<rect x="73" y="279.1" class="st18" width="2.3" height="18.5"/>
	</g>
	<g>
		<rect x="75.3" y="280.2" class="st16" width="2.1" height="17.3"/>
	</g>
</g>
<g>
	<g>
		<g>
			<rect x="224.4" y="333.5" class="st3" width="3.2" height="78.5"/>
		</g>
		<g>
			<rect x="227.5" y="333.5" class="st5" width="2.1" height="78.5"/>
		</g>
		<g>
			<rect x="194.9" y="407.6" class="st5" width="34.8" height="4.4"/>
		</g>
		<g>
			<rect x="198" y="333.5" class="st5" width="2.1" height="78.5"/>
		</g>
		<g>
			<rect x="194.9" y="333.5" class="st3" width="3.2" height="78.5"/>
		</g>
	</g>
	<g>
		<g>
			<rect x="232.9" y="355.1" class="st34" width="2.4" height="57.5"/>
		</g>
		<g>
			<rect x="231.7" y="355.1" class="st33" width="1.2" height="57.5"/>
		</g>
	</g>
	<g>
		<rect x="205.2" y="354.1" class="st33" width="39.9" height="4.7"/>
	</g>
	<g>
		<g>
			<polygon class="st34" points="239.7,412.5 242.1,412.5 242.5,358.2 240.1,358.2 			"/>
		</g>
		<g>
			<polygon class="st33" points="238.5,412.5 239.7,412.5 240.1,358.2 238.8,358.2 			"/>
		</g>
	</g>
	<g>
		<polygon class="st31" points="232.2,354 267.5,354 282.7,296.8 248.2,296.8 		"/>
	</g>
	<g>
		<polygon class="st34" points="283.2,296.8 271.3,358.8 236.4,358.8 236.4,354 267.5,354 278.8,296.8 		"/>
	</g>
	<g>
		<path class="st21" d="M328.7,287.3c0,0,2.5-0.3,3.5-3c1-2.8,0-6.9-0.8-7.7c-0.8-0.8-6-3.9-10.1-2c-4.1,1.9-1.6,11.4,1.5,12.3
			C325.9,287.8,328.7,287.3,328.7,287.3z"/>
	</g>
	<g>
		<path class="st21" d="M331.5,279.6c0,0,9.1-1.5,8.8-7.5c-0.3-6-9.5-10-12.3-9.8c-5.8,0.3-7.5,5.3-2.9,13.5
			C329.7,284.1,331.5,279.6,331.5,279.6z"/>
	</g>
	<g>
		<g>
			<polygon class="st32" points="309.2,356.4 343.4,356.4 358.2,300.8 324.7,300.8 			"/>
		</g>
		<g>
			<g>
				<polygon class="st34" points="344.6,411.9 347,411.9 347.1,359 344.8,359 				"/>
			</g>
			<g>
				<polygon class="st33" points="343.5,411.9 344.6,411.9 344.8,359 343.6,359 				"/>
			</g>
		</g>
		<g>
			<g>
				<polygon class="st34" points="316.4,411.9 318.8,411.9 319.2,360.3 316.8,360.3 				"/>
			</g>
			<g>
				<polygon class="st33" points="315.3,411.9 316.4,411.9 316.8,360.3 315.6,360.3 				"/>
			</g>
		</g>
		<g>
			<g>
				<rect x="309.9" y="357.4" class="st34" width="2.4" height="54.6"/>
			</g>
			<g>
				<rect x="308.6" y="357.4" class="st33" width="1.2" height="54.6"/>
			</g>
		</g>
		<g>
			<g>
				<rect x="287.2" y="357" class="st34" width="2.4" height="54.6"/>
			</g>
			<g>
				<rect x="286" y="357" class="st33" width="1.2" height="54.6"/>
			</g>
		</g>
		<g>
			<rect x="283.1" y="356.3" class="st33" width="38.6" height="4.6"/>
		</g>
		<g>
			<polygon class="st34" points="358.6,300.8 347.1,360.9 313.3,360.9 313.3,356.4 343.4,356.4 354.4,300.9 			"/>
		</g>
	</g>
	<g>
		<g>
			<g>
				<path class="st16" d="M283.1,412.2c0-0.3,2-1.4,3.3-1.9c-0.4,0.3-0.8,0.7-0.1,0.8c0.9,0.2,3-0.2,3.6-0.9
					c0.2,0.5,0.3,1.2,0.3,1.7C290.2,412.7,283.3,413.4,283.1,412.2z"/>
			</g>
			<g>
				<path class="st17" d="M286.3,411.2c-0.6-0.2-0.3-0.6,0.1-0.8c0.8-0.3,1.5-0.5,1.7-0.6c0.4-0.2,0.5-0.6,0.5-0.6l0.4-0.1
					c0,0,0.7,1.1,0.8,1.3C289.3,411,287.3,411.4,286.3,411.2z"/>
			</g>
		</g>
		<g>
			<g>
				<path class="st16" d="M292.5,413c0-0.3,2-1.4,3.3-1.9c-0.4,0.3-0.8,0.7-0.1,0.8c0.9,0.2,3-0.2,3.6-0.9c0.2,0.5,0.3,1.2,0.3,1.7
					C299.6,413.5,292.7,414.3,292.5,413z"/>
			</g>
			<g>
				<path class="st35" d="M295.7,412c-0.6-0.2-0.3-0.6,0.1-0.8c0.8-0.3,1.5-0.5,1.7-0.6c0.4-0.2,0.5-0.6,0.5-0.6l0.4-0.1
					c0,0,0.7,1.1,0.8,1.3C298.7,411.8,296.7,412.2,295.7,412z"/>
			</g>
		</g>
		<g>
			<path class="st17" d="M322.2,326.5c2.2,8.5-1.2,7.9-0.5,17c1,12.5-34.1,13.8-34.1,13.8s0.9,45,1.5,52l-0.5,0.1
				c0,0-17.3-41.6-11.1-59.8c3.4-10,26.6-14.7,26.6-14.7l8.6-9.4C312.6,325.4,315.1,326.4,322.2,326.5z"/>
		</g>
		<g>
			<path class="st35" d="M336,326.5c5.9,15.9,5.5,18.5,2.8,23c-3.4,5.7-11.4,6.2-19.2,6.3c-6.5,0.1-12.2,0.6-12.2,0.6
				s-8.4,46.6-8.7,53.7c-0.1,1.1-0.7,2-0.8,0.1c-0.4-7.4-2.2-30.8-4.9-55.2c-1.5-13.1,26.1-16.8,26.1-16.8l3-11.6
				C322.2,326.5,328.9,326.4,336,326.5z"/>
		</g>
	</g>
	<g>
		<g>
			<path class="st36" d="M294.6,288.3c1.3,3.2,6.2,19,6.2,19s-3.3,6.8-6,3.9c-5-5.5-4.3-4.9-7.4-10.7c-2.9-5.5-0.8-15.9-0.8-15.9
				S293.2,285,294.6,288.3z"/>
		</g>
	</g>
	<g>
		<path class="st23" d="M336.2,328c0,0,4.3,9.4,4.4,15.1c0,5.7-2.2,11.9-18.5,11.8l-14.7,0.6c0,0-13.1-12.9-29.6-7.5
			c0,0-1-7,25.6-13.5l8.4-9.1L336.2,328z"/>
	</g>
	<g>
		<path class="st37" d="M336.7,328c0,0,4.3,9.4,4.4,15.1c0,5.7-1.8,12.9-18.1,12.9l-15.3,0.7c0,0-5.1-5.9-12.6-8.4
			c-0.1,0-0.3-0.1-0.3-0.1s2.5-3.4,9.3-6.4c2.8-1.2,11.6-4.1,11.6-4.1l6-11.3L336.7,328z"/>
	</g>
	<g>
		<path class="st36" d="M310.4,299.3c-0.2-4.1,2.8-7.6,6.9-8c2.4-0.2,5.6-0.3,9.8,0c2.6,0.2,7.3,0.7,11.9,5.7c1.8,2-2.4,30.6-2,32.3
			c-16,3.6-23.8-0.4-25.8-3.1C311.5,323.6,310.8,308.3,310.4,299.3z"/>
	</g>
	<g>
		<g>
			<path class="st36" d="M292.6,308.3c0,0,5.4-6.8,8.1-9.5c2-2,5.8-5.2,7-6.2c1.8-1.5,7.2-1.8,11.7-1.5
				c-0.8,3.9-17.7,17.8-20.7,20.4C295.5,314.3,292.6,308.3,292.6,308.3z"/>
		</g>
	</g>
	<g>
		<path class="st38" d="M331.8,293.2c3.5-0.3,6.9,0.5,9.7,5c3.3,5.4,9.6,16.6,7,23.6c-1.9,5.2-9.3-5.5-9.3-5.5s1-3.5-2-10.5
			C336.5,304,330.4,297.6,331.8,293.2z"/>
	</g>
	<g>
		<path class="st38" d="M324.2,290.6c0,0,3.7,0.7,4.2,0.8c3.5,0.4,7.4,0.4,11.4,4.7c1.8,2-3,31.3-2.6,33c-6,1.7-9.4,1.5-13.2,1.5
			c-2,0-4.5-0.5-4.5-0.5s2.6-13.3,3.3-18.7C323.6,306.4,324.2,290.6,324.2,290.6z"/>
	</g>
	<g>
		<path class="st18" d="M324.8,286.2L324.8,286.2L324.8,286.2z"/>
	</g>
	<g>
		<g>
			<path class="st17" d="M323.4,285.5c0,0-0.7,5.6-0.4,6.2c0.3,0.6,1.4,1.5,2,0.1s0.1-6.3,0.1-6.3H323.4z"/>
		</g>
		<g>
			<path class="st20" d="M323,289.6c0.6,0.5,1.5,0.8,2.3,0.2c0-1,0-2.2-0.1-3h-1.9C323.2,287.6,323.1,288.7,323,289.6z"/>
		</g>
	</g>
	<g>
		<path class="st17" d="M327.2,285.4c0.2-0.4,0.3-1.7,0.3-3c0-1.8-1.4-3.2-3.2-3.1c-0.4,0-0.7,0-0.8-0.1c-1,0.1-2.1,0.1-3,0.6
			c-0.9,0.6-1,1.9-1.1,2.8c-0.1,1,0.1,2.7,0.7,3.6c0.5,0.8,2,1.5,2.9,1.5C325.7,287.9,326.5,287.3,327.2,285.4z"/>
	</g>
	<g>
		<g>
			<rect x="280.6" y="308" class="st4" width="2.1" height="8.5"/>
		</g>
		<g>
			<rect x="281.9" y="287.4" class="st4" width="1" height="4.7"/>
		</g>
		<g>
			<path class="st8" d="M279.2,308.3h6.5l5.6-5.6l12.9,4.7l-1.4,15.4h19.7v-1.7l-2.3-27.5c-0.1-1-0.9-1.8-2-1.8h-38.9
				c-0.8,0-1.4,0.6-1.4,1.4V307C277.8,307.7,278.4,308.3,279.2,308.3z"/>
		</g>
		<g>
			<path class="st5" d="M322.4,324.6h-45.3v-1.2c0-1.3,1-2.3,2.3-2.3h43V324.6z"/>
		</g>
		<g>
			<rect x="277.1" y="324.6" class="st4" width="45.3" height="4.6"/>
		</g>
		<g>
			<rect x="278.9" y="322.2" class="st4" width="5.8" height="1.4"/>
		</g>
		<g>
			<g>
				<polygon class="st4" points="281.5,323.1 281.3,315.5 281.9,315.5 				"/>
			</g>
		</g>
		<g>
			<path class="st13" d="M283.4,316h-0.7v-2.2h0.7c0.2,0,0.4,0.2,0.4,0.4v1.4C283.8,315.8,283.6,316,283.4,316z"/>
		</g>
		<g>
			<path class="st13" d="M281.6,308.3h-3c-0.4,0-0.8-0.3-0.8-0.8v-14.7c0-0.5,0.4-0.9,0.9-0.9h2.9V308.3z"/>
		</g>
		<g>
			<circle class="st13" cx="288.3" cy="304.2" r="2.5"/>
		</g>
		<g>
			<path class="st4" d="M289.5,304.2c0,0.7-0.5,1.2-1.2,1.2s-1.2-0.5-1.2-1.2s0.5-1.2,1.2-1.2S289.5,303.6,289.5,304.2z"/>
		</g>
		<g>
			<path class="st13" d="M320.1,294h1.2c1.5,0,2.7,1.2,2.7,2.7v9.7c0,1.5-1.2,2.7-2.7,2.7l0,0"/>
		</g>
		<g>
			<rect x="285.8" y="290.7" class="st8" width="2.5" height="1.4"/>
		</g>
		<g>
			<g>
				<rect x="310.3" y="286.1" class="st4" width="0.7" height="6.5"/>
			</g>
			<g>
				<rect x="308.7" y="290.1" class="st8" width="3.9" height="3.2"/>
			</g>
		</g>
		<g>
			<g>
				<rect x="305.5" y="286.1" class="st4" width="0.7" height="6.5"/>
			</g>
			<g>
				<rect x="303.9" y="290.1" class="st8" width="3.9" height="3.2"/>
			</g>
		</g>
		<g>
			<circle class="st13" cx="312.5" cy="314" r="4.3"/>
		</g>
		<g>
			<circle class="st4" cx="312.5" cy="314" r="1.7"/>
		</g>
	</g>
	<g>
		<g>
			<path class="st17" d="M325.4,299.7c0.2-0.2,0.2-3.1-0.4-4c-0.5-0.7-2.5-2-2.9-1.8c-0.4,0.2-0.1,0.6-0.1,0.6s-0.5-0.2-0.7,0.2
				c-0.1,0.2,0.8,1,1.2,1.7c0.2,0.4,0.6,2.8,1.2,2.9C324.2,299.4,325,300,325.4,299.7z"/>
		</g>
	</g>
	<g>
		<path class="st38" d="M344.4,324c-5.5-0.2-24.3-15.5-21.1-23.2c0.3-0.7,0.6-1.3,1-1.7c0.9-1,2.5-1.1,3.5-0.2l19.7,16.1
			C347.5,314.9,351.9,324.2,344.4,324z"/>
	</g>
	<g>
		<g>
			<path class="st17" d="M287.4,284.7c0,0,0.1-2.1-1.8-2.5c-1-0.2-2,0.3-2,0.7c0,0.4,1,0.2,1.5,0.4c0.7,0.4,1.5,2.3,2.4,2.2
				C287.7,285.5,287.8,284.9,287.4,284.7z"/>
		</g>
		<g>
			<path class="st17" d="M285.4,282.1c-0.1,0-1.7-0.6-1.7-0.3c0,0.2,1.1,0.7,1.1,0.7L285.4,282.1"/>
		</g>
		<g>
			<path class="st17" d="M286.1,284.2c-0.1,0-1.1-0.6-1.4-0.4s0.6,0.8,0.8,1c0.4,0.2,1.5,0.7,1.5,0.7L286.1,284.2z"/>
		</g>
	</g>
	<g>
		<path class="st21" d="M322.3,279.8c0,0,3.7,4.9,6.1,4.1c2.4-0.8,2.2-4.8-0.1-5.8C326,277.1,322.3,279.8,322.3,279.8z"/>
	</g>
	<g>
		<path class="st21" d="M323.8,277.4c0,0,2.9,0.1-3.6,5.5c-1,0.9-2,2.2-2.2,2.5c0,0-0.9-5.8,2.2-7.2
			C322.1,277.3,323.8,277.4,323.8,277.4z"/>
	</g>
	<g>
		<path class="st39" d="M340.3,272.1c-0.1-1.3-0.7-2.6-1.4-3.7c-0.8-1.1-1.8-2-2.8-2.7c-1.1-0.8-2.2-1.4-3.5-1.9
			c-1.2-0.5-2.5-1-3.8-1.2c-0.6-0.1-1.3,0-1.9,0.1c-0.3,0.1-0.6,0.1-0.9,0.2l-0.5,0.2c-0.1,0.1-0.3,0.1-0.4,0.2
			c-1.2,0.6-1.9,1.7-2.2,2.9c-0.3,1.2-0.2,2.6,0.1,3.9c0.3,1.3,0.8,2.5,1.3,3.7l0,0c0.1,0.1,0,0.3-0.1,0.3h-0.1
			c-0.7,0-1.3,0.1-2,0.3c-0.6,0.2-1.2,0.4-1.7,0.9s-0.8,1.1-0.9,1.7c-0.2,0.6-0.3,1.3-0.3,2v0.1c-0.7,0.8-1,1.9-1.2,3
			c-0.2,1.1-0.2,2.2-0.1,3.3c-0.2-1.1-0.2-2.2-0.1-3.3c0.1-1.1,0.4-2.2,1.1-3.1v0.1c0-0.7,0.1-1.4,0.2-2.1c0.2-0.7,0.5-1.3,1-1.9
			c0.5-0.5,1.2-0.8,1.8-1.1c0.7-0.2,1.4-0.3,2.1-0.3l-0.2,0.3c-0.6-1.2-1.1-2.5-1.4-3.8s-0.5-2.7-0.2-4.1c0.3-1.4,1.2-2.6,2.5-3.3
			c0.2-0.1,0.3-0.2,0.5-0.2l0.5-0.2c0.3-0.1,0.7-0.2,1-0.3c0.7-0.1,1.4-0.2,2.1-0.1c1.4,0.2,2.6,0.7,3.9,1.3
			c1.2,0.6,2.4,1.3,3.5,2.1c1.1,0.8,2.1,1.8,2.8,2.9C339.8,269.4,340.3,270.7,340.3,272.1z"/>
	</g>
	<g>
		<g>
			<polygon class="st5" points="283.6,288.3 281.1,288.3 281.1,278.9 283.6,278.9 			"/>
		</g>
		<g>
			<path class="st5" d="M283.6,288.2c0,0.2-0.6,0.3-1.2,0.3s-1.2-0.1-1.2-0.3s0.6-0.3,1.2-0.3S283.6,288.1,283.6,288.2z"/>
		</g>
		<g>
			<path class="st28" d="M280.2,286.7c0,0.3,1,0.5,2.2,0.5s2.2-0.2,2.2-0.5v-6.6h-4.3v6.6"/>
		</g>
		<g>
			<path class="st40" d="M284.5,280.1c0,0.3-1,0.5-2.2,0.5s-2.2-0.2-2.2-0.5c0-0.3,1-0.5,2.2-0.5
				C283.5,279.5,284.5,279.8,284.5,280.1z"/>
		</g>
		<g>
			<path class="st5" d="M281.1,280.1c0,0.2,0.6,0.3,1.2,0.3c0.7,0,1.2-0.1,1.2-0.3v-1.2H281L281.1,280.1"/>
		</g>
		<g>
			<ellipse class="st4" cx="282.4" cy="278.9" rx="1.2" ry="0.3"/>
		</g>
		<g>
			<path class="st41" d="M283.3,278.9c0,0.1-0.4,0.2-1,0.2c-0.5,0-1-0.1-1-0.2s0.4-0.2,1-0.2C282.9,278.7,283.3,278.8,283.3,278.9z"
				/>
		</g>
	</g>
	<g>
		<rect x="342.9" y="333.5" class="st3" width="3.2" height="78.5"/>
	</g>
	<g>
		<rect x="346.1" y="333.5" class="st5" width="2.1" height="78.5"/>
	</g>
	<g>
		<rect x="316.2" y="333.5" class="st5" width="2.1" height="78.5"/>
	</g>
	<g>
		<rect x="313" y="407.6" class="st5" width="35.3" height="4.4"/>
	</g>
	<g>
		<rect x="313" y="333.5" class="st3" width="3.2" height="78.5"/>
	</g>
	<g>
		<rect x="289.4" y="329" class="st31" width="58.9" height="8.1"/>
	</g>
	<g>
		<g>
			<polygon class="st34" points="268.8,412.5 271.2,412.5 271.3,356.8 268.9,356.8 			"/>
		</g>
		<g>
			<polygon class="st33" points="267.6,412.5 268.8,412.5 268.9,356.8 267.7,356.8 			"/>
		</g>
	</g>
	<g>
		<g>
			<rect x="209.6" y="354.7" class="st34" width="2.4" height="58.2"/>
		</g>
		<g>
			<rect x="208.4" y="354.7" class="st33" width="1.2" height="58.2"/>
		</g>
	</g>
	<g>
		<path class="st18" d="M232.3,296.1c0,0-15.4-6.6-5.1-14.2c0,0-3.5-10.2,5.5-14.2c0,0,5.9-2.1,7.9,4.9c0,0,5.9-1.4,6.3,5.9
			c0,0,4.6-8,13.1-3.3c8.4,4.7,5.1,16.2,5.1,16.2s6.7-2.7,7.6,5.5c1.3,12.5-18.2,16.2-18.2,16.2L232.3,296.1z"/>
	</g>
	<g>
		<path class="st42" d="M227.3,293.1c-0.9-0.7-1.8-1.5-2.5-2.4c-0.7-0.9-1.2-2-1.3-3.2s0.4-2.4,1-3.3c0.7-1,1.6-1.8,2.5-2.5
			l-0.1,0.3c-0.4-1.4-0.7-2.8-0.7-4.2c-0.1-1.4,0.1-2.9,0.6-4.2c0.4-1.4,1.2-2.6,2.2-3.7c1-1.1,2.3-1.8,3.5-2.5l0,0
			c0.9-0.3,1.8-0.4,2.8-0.3c0.9,0.1,1.8,0.4,2.6,0.9s1.4,1.2,1.9,2c0.3,0.4,0.4,0.8,0.6,1.2l0.4,1.3l-0.4-0.2
			c0.9-0.2,1.8-0.1,2.6,0.1c0.9,0.2,1.7,0.7,2.3,1.3c0.6,0.7,1,1.5,1.3,2.3c0.1,0.4,0.2,0.8,0.3,1.3l0.1,1.3l-0.5-0.1
			c0.7-1.1,1.6-2,2.6-2.8s2.2-1.4,3.4-1.7c1.2-0.3,2.5-0.4,3.8,0c0.6,0.1,1.2,0.4,1.8,0.5c0.6,0.2,1.1,0.6,1.7,0.8
			c-0.6-0.2-1.1-0.5-1.7-0.7c-0.6-0.2-1.2-0.4-1.8-0.5c-1.2-0.3-2.5-0.1-3.7,0.2s-2.3,0.9-3.2,1.7c-0.9,0.8-1.8,1.7-2.4,2.8
			c-0.1,0.1-0.2,0.2-0.4,0.1c-0.1,0-0.1-0.1-0.1-0.2l0,0l-0.1-1.2c-0.1-0.4-0.2-0.8-0.3-1.2c-0.3-0.8-0.7-1.5-1.2-2
			c-0.5-0.6-1.3-0.9-2-1.1c-0.8-0.2-1.6-0.2-2.3-0.1c-0.2,0-0.3-0.1-0.4-0.2l0,0l-0.4-1.2c-0.2-0.4-0.3-0.8-0.6-1.1
			c-0.4-0.7-1-1.3-1.7-1.8s-1.5-0.7-2.3-0.8c-0.8-0.1-1.7,0-2.5,0.2l0,0c-1.2,0.6-2.4,1.3-3.3,2.3c-0.9,1-1.7,2.1-2.1,3.4
			c-0.4,1.3-0.6,2.7-0.6,4c0,1.4,0.2,2.8,0.6,4.1l0,0c0,0.1,0,0.2-0.1,0.3c-0.9,0.7-1.8,1.4-2.4,2.3c-0.6,0.9-1.1,2-1.1,3.1
			c0,1.1,0.5,2.2,1.2,3.1C225.6,291.5,226.5,292.3,227.3,293.1z"/>
	</g>
	<g>
		<path class="st11" d="M203.6,319.1c-0.1-0.5,0.7-1.5,1.2-1.7c5-2.4,13.7-5.7,15.7-7.4c1.3-1.1,6.6,0.6,4.8,4.1
			c-0.7,1.3-3.8,4.4-5.7,5.4C212.2,323.3,205.6,329.4,203.6,319.1z"/>
	</g>
	<g>
		<g>
			<path class="st16" d="M217.1,413.5c-0.8-1.5,3.1-2.9,5.2-3.7c-0.5,0.4-1.2,1.1-0.2,1.2c1.4,0.2,4.3-0.5,5-1.6
				c0.4,0.7,0.6,1.7,0.7,2.4C227.9,412.7,217.5,414.2,217.1,413.5z"/>
		</g>
		<g>
			<path class="st17" d="M222.1,411c-1-0.2-1.3-0.8,0.1-1.2c1.2-0.4,2.2-0.9,2.4-1.1c0.6-0.3,0.7-1.3,0.7-1.3l1.1-0.2
				c0,0,0.7,1.8,0.8,2C226.4,410.5,223.5,411.3,222.1,411z"/>
		</g>
	</g>
	<g>
		<g>
			<path class="st16" d="M190.7,392.5c0-1.1,3.8-1.9,6-2c-0.6,0.3-1.4,0.7-0.6,1.1c1.3,0.6,4.3,0.7,5.3-0.1c0.2,0.8,0.1,1.8,0,2.5
				C201.2,394.9,190.7,393.3,190.7,392.5z"/>
		</g>
		<g>
			<path class="st17" d="M196.1,391.6c-0.9-0.4-1-1.1,0.4-1.1c1.3,0,2.4-0.3,2.6-0.3c0.6-0.2,1-1.1,1-1.1l1.1,0.2c0,0,0.1,2,0.1,2.2
				C200.4,392.3,197.4,392.2,196.1,391.6z"/>
		</g>
	</g>
	<g>
		<path class="st16" d="M262.2,335c-1.3-9.8-6.6-16.8-6.6-16.8s-18.9,0.5-20.6,3.7c0,0-0.1,5-0.3,5.3c-7.8,8.9-21.9,8.3-22.2,20.1
			c-0.5,23.4,5.9,57.7,9.9,60.2c1,0.6,3.1,0.3,3.1,0.3c0.9,0,1-0.5,1-1.8l0.3-51.4l16.2-1.3c4.3-0.1,5.1,0.1,12.1-1.6
			C259.2,350.9,263.5,344.5,262.2,335z"/>
	</g>
	<g>
		<path class="st10" d="M233.3,322.1c3.4,0.4,16.3,1.3,22.9-2.9c0.3-7.1,0.2-15.2-1.4-21.6c-0.5-1.9-1.6-5.4-3.1-7.2
			c-2.2-2.5-6.2-2.5-9.5-1.9c-1.7,0.3-3.3,0.5-4.1,0.7c-5.8,0.9-5.7,1-8.1,4.2C228,296,233.3,322.1,233.3,322.1z"/>
	</g>
	<g>
		<path class="st11" d="M233.3,322.1c1.6,0.2,5.4,0.4,9.7,0.1c0.4,0,1.8,0,1.8,0s-1.5-8.7-3.5-17.1c-2-8-0.5-15.3-0.7-16.3
			c-0.1-0.4-3.3,0.4-3.6,0.4c-4.7,0.7-4.8,1.1-7,4C228,296,233.3,322.1,233.3,322.1z"/>
	</g>
	<g>
		<g>
			<path class="st17" d="M238.2,284.6c0,0,0.9,4.3,1.1,4.9c0.3,0.9,2.5,1.4,2.9-0.1c0.3-1.5-1.9-5.6-1.9-5.6L238.2,284.6z"/>
		</g>
		<g>
			<path class="st20" d="M239.1,288.4c0.9,0.1,2.1,0,2.9-0.8c-0.3-0.9-0.7-1.9-1.1-2.6l-2.4,0.9
				C238.6,286.6,238.8,287.6,239.1,288.4z"/>
		</g>
	</g>
	<g>
		<path class="st17" d="M241.4,282.1c0-0.7-0.9-2.8-1.7-4.5c-0.7-1.5-2.4-2.1-3.9-1.3c-2.2,1.1-4.6,2.5-5.1,3.2
			c-0.8,1.2-0.1,2.7,0.3,3.9c0.4,1.2,1.7,3.1,2.8,3.7c1,0.6,3.2,0.6,4.2,0.1C241.1,285.8,241.6,284.6,241.4,282.1z"/>
	</g>
	<g>
		<path class="st11" d="M235.6,290.3c0,0,0.3,3.7-4.8,13.5c-6,11.6-5.6,12.9-9.3,10.9l-2.8-1.5c0,0,5.4-15.4,7.6-19.2
			C228.7,289.8,235.6,290.3,235.6,290.3z"/>
	</g>
	<g>
		<path class="st25" d="M244.5,304.8h-1V295h1c1,0,1.9,0.8,1.9,1.9v6C246.3,304,245.5,304.8,244.5,304.8z"/>
	</g>
	<g>
		<path class="st25" d="M209,314.8h-0.8v-2.3h0.8c0.2,0,0.4,0.2,0.4,0.4v1.5C209.3,314.6,209.2,314.8,209,314.8z"/>
	</g>
	<g>
		<rect x="206.1" y="306.6" class="st4" width="2.2" height="9"/>
	</g>
	<g>
		<rect x="239.7" y="299.1" class="st26" width="3.3" height="2.1"/>
	</g>
	<g>
		<path class="st25" d="M210.6,309.9h-6.4c-0.5,0-0.9-0.4-0.9-0.9v-16.5c0-0.5,0.4-0.9,0.9-0.9h10.1l-2.8,17.5
			C211.3,309.6,211,309.9,210.6,309.9z"/>
	</g>
	<g>
		<path class="st25" d="M240,302.5h-30.1v-10.9H239c0.5,0,0.9,0.4,0.9,0.9v10H240z"/>
	</g>
	<g>
		<path class="st25" d="M224,300.4l-2.8,19.7c-0.1,0.7,0.4,1.3,1.2,1.3h18.1v-0.3v-28.6c0-0.5-0.4-0.9-0.9-0.9h-14.9L224,300.4z"/>
	</g>
	<g>
		<path class="st5" d="M236.7,298.3h-9.1c-0.4,0-0.8-0.4-0.8-0.8v-1.1c0-0.4,0.4-0.8,0.8-0.8h9.1c0.4,0,0.8,0.4,0.8,0.8v1.1
			C237.5,297.9,237.2,298.3,236.7,298.3z"/>
	</g>
	<g>
		<rect x="227.8" y="296.1" class="st4" width="8.7" height="1.7"/>
	</g>
	<g>
		<g>
			<rect x="228" y="298" class="st5" width="0.3" height="1.2"/>
		</g>
	</g>
	<g>
		<g>
			<rect x="229.6" y="298" class="st5" width="0.3" height="1.2"/>
		</g>
	</g>
	<g>
		<g>
			<rect x="231.3" y="298" class="st5" width="0.3" height="1.2"/>
		</g>
	</g>
	<g>
		<g>
			<rect x="232.9" y="298" class="st5" width="0.3" height="1.2"/>
		</g>
	</g>
	<g>
		<g>
			<rect x="234.6" y="298" class="st5" width="0.3" height="1.2"/>
		</g>
	</g>
	<g>
		<g>
			<rect x="236.2" y="298" class="st5" width="0.3" height="1.2"/>
		</g>
	</g>
	<g>
		<rect x="206.8" y="287.9" class="st4" width="1.1" height="3.8"/>
	</g>
	<g>
		<rect x="229.1" y="290.5" class="st25" width="3.4" height="1.3"/>
	</g>
	<g>
		<rect x="230.4" y="288.1" class="st4" width="0.9" height="2.4"/>
	</g>
	<g>
		<path class="st26" d="M242.9,308.2h-1v-16.5h1c1.1,0,2,0.9,2,2v12.5C244.9,307.3,244,308.2,242.9,308.2z"/>
	</g>
	<g>
		<rect x="240.4" y="311.5" class="st25" width="1.4" height="4.6"/>
	</g>
	<g>
		<path class="st10" d="M258.7,296.1c7.7,10.6,5.8,17.3,5.8,17.3l-6.9,0.9c0,0-8.2-21.1-10.4-24.8
			C245.7,286.9,253.4,288.7,258.7,296.1z"/>
	</g>
	<g>
		<path class="st43" d="M247,300.6c0.2,0,0.4-0.2,0.4-0.4c0.1-0.5,0.1-2.1-0.2-3c-0.2-0.4-0.8-1.6-1.8-1.9c-0.2-0.1-0.8-0.2-1,0
			c-0.1,0.1-0.3,0.6,0.2,1.9c0.2,0.5,0.7,1.9,1.1,2.3c0,0,0.7,1.3,0.8,1.7C246.6,301.4,246.6,300.7,247,300.6z"/>
	</g>
	<g>
		<path class="st10" d="M245.8,300.1c-1.9,2.3-1.1,5.5,1.4,7.1c5,3.4,9.7,7.4,11.8,8.3c2.6,1.2,6.8-0.2,5.5-4.1
			c-0.5-1.5-2.9-4.2-4.8-5.6C253.9,301.4,249.2,295.9,245.8,300.1z"/>
	</g>
	<g>
		<path class="st11" d="M247.4,298.8c1.1-0.5,2.4-0.4,3.5,0.2c0.6,0.2,1.1,0.6,1.5,0.9c0.5,0.3,1,0.7,1.4,1.1
			c0.9,0.7,1.9,1.5,2.8,2.2c0.9,0.8,1.8,1.5,2.6,2.4c-1-0.7-1.9-1.4-2.9-2.1c-1-0.7-1.9-1.4-2.8-2.1l-1.4-1.1
			c-0.5-0.4-0.9-0.7-1.4-1s-1-0.5-1.6-0.6C248.6,298.7,248,298.7,247.4,298.8z"/>
	</g>
	<g>
		<path class="st11" d="M245.8,300.1c-0.6,0.8-0.9,1.8-0.9,2.8s0.4,1.9,0.9,2.7c1.2,1.5,2.8,2.8,4.4,4c1.6,1.2,3.2,2.3,4.9,3.4
			c0.8,0.5,1.7,1.1,2.5,1.6c0.9,0.5,1.7,1,2.6,1.4c-1.9-0.6-3.7-1.6-5.4-2.6c-1.7-1-3.4-2.2-5-3.4c-0.8-0.6-1.6-1.3-2.3-1.9
			c-0.7-0.7-1.5-1.4-2.1-2.2c-0.6-0.9-0.9-1.9-0.8-2.9C244.7,301.8,245.1,300.9,245.8,300.1z"/>
	</g>
	<g>
		<path class="st18" d="M231.8,276.4c0,0,5.2,6.3,9.5,4.2c4.2-2.1-2.6-6.1-2.6-6.1L231.8,276.4z"/>
	</g>
	<g>
		<path class="st18" d="M230.4,285.7c0,0,4.7-8.7,3.4-10.9s-4.7,1.9-4.7,1.9L230.4,285.7z"/>
	</g>
	<g>
		<path class="st18" d="M262.2,341c-0.4-9.9-45.7-22-50.5-11.1c-9.4,21.4-16.5,55.6-13.7,59.4c0.7,1,2.7,1.4,2.7,1.4
			c0.8,0.3,1.2-0.2,1.6-1.3l19.8-47.4c0,0,19.9,11.1,27.1,10.9C261.2,352.8,262.5,347.6,262.2,341z"/>
	</g>
	<g>
		<polygon class="st32" points="284.5,328.9 243.1,328.9 194.9,328.9 194.9,337.1 243.1,337.1 295.5,337.1 317.3,337.1 317.3,328.9 
					"/>
	</g>
	<g>
		<path class="st5" d="M246.3,324.1h-47.8v-1.3c0-1.3,1.1-2.4,2.4-2.4h43c1.3,0,2.4,1.1,2.4,2.4L246.3,324.1L246.3,324.1z"/>
	</g>
	<g>
		<rect x="198.5" y="324.1" class="st4" width="47.8" height="4.9"/>
	</g>
	<g>
		<rect x="204.3" y="321.5" class="st4" width="6.1" height="1.5"/>
	</g>
	<g>
		<path class="st4" d="M206.8,322.5"/>
	</g>
	<g>
		<path class="st8" d="M221.2,320.4l-21-0.5c0,0-2.1,1.3-3.7,5.4c-1.6,4.1-4.6,3.2-5.2,5.3s0,16.1,0,16.1h21.5l-1.1-12.4
			c0.1-1.9,1.1-3.6,2.7-4.7c1.2-0.7,2.4-1.7,3.2-2.9C219.2,324.1,215.9,321.5,221.2,320.4z"/>
	</g>
	<g>
		<g>
			<polygon class="st4" points="207,322.5 206.8,314.4 207.4,314.4 			"/>
		</g>
	</g>
	<g>
		<path class="st17" d="M204.4,319c-0.6-0.2-2.4-0.4-3.5-0.1c-0.5,0.1-1.9,0.8-2.3,1.9c-0.1,0.3-0.3,0.8-0.1,1.1
			c0.1,0.2,1-0.4,1.6-1.1c0.4-0.5,1.1-0.3,1.5-0.1c0,0-1,0.6-0.8,0.9s2.1-0.4,2.6-0.8c0,0,1.1-0.7,1.5-0.9
			C205.2,319.8,204.7,319.1,204.4,319z"/>
	</g>
	<g>
		<path class="st36" d="M344.4,324c-1.4-0.1-2.6-0.6-3.8-1.2c-1.2-0.6-2.4-1.3-3.5-2c-2.3-1.5-4.4-3.2-6.4-5.1
			c-2-1.8-3.8-3.9-5.4-6.1c-0.8-1.1-1.5-2.3-2-3.6c-0.5-1.3-0.9-2.7-0.6-4.1c0.1-0.7,0.4-1.4,0.7-2c0.2-0.3,0.4-0.6,0.6-0.9
			c0.2-0.3,0.6-0.5,0.9-0.7c0.7-0.3,1.5-0.4,2.2-0.1c0.4,0.1,0.7,0.3,1,0.6l0.8,0.6c2.1,1.7,4.2,3.4,6.2,5.2l6.2,5.2l6.2,5.3l-6.4-5
			l-6.3-5.1c-2.1-1.7-4.2-3.4-6.3-5.1l-0.8-0.6c-0.2-0.2-0.5-0.3-0.8-0.4c-0.6-0.2-1.2-0.2-1.7,0.1c-0.3,0.1-0.5,0.3-0.7,0.5
			c-0.2,0.2-0.4,0.5-0.5,0.8c-0.3,0.6-0.5,1.2-0.6,1.8c-0.2,1.2,0.1,2.6,0.6,3.8s1.1,2.4,1.9,3.5c1.5,2.2,3.3,4.2,5.2,6.1
			c1.9,1.9,4,3.6,6.2,5.2c1.1,0.8,2.2,1.5,3.4,2.2C341.8,323.2,343,323.8,344.4,324z"/>
	</g>
</g>
<g>
	<g>
		<g>
			
				<rect x="507.8" y="267.5" transform="matrix(0.4208 -0.9072 0.9072 0.4208 43.518 621.4955)" class="st10" width="1.3" height="18.4"/>
		</g>
	</g>
	<g>
		<g>
			<rect x="491.8" y="293.2" class="st4" width="2.8" height="58.1"/>
		</g>
		<g>
			<g>
				<path class="st4" d="M482.4,361.4c-0.6,0-1.1-0.6-1.1-1.3s0.5-1.3,1.1-1.3c2.1,0,4-1.8,4.9-4.6l0.1-0.4c1-2.9,3-4.7,5.3-4.7h0.9
					c0.6,0,1.1,0.6,1.1,1.3s-0.5,1.3-1.1,1.3h-0.9c-1.4,0-2.7,1.2-3.4,3.2l-0.1,0.4C488,359.1,485.3,361.4,482.4,361.4z"/>
			</g>
		</g>
		<g>
			<g>
				<path class="st4" d="M504.2,361.4c0.6,0,1.1-0.6,1.1-1.3c0-0.7-0.5-1.3-1.1-1.3c-2.2,0-4.1-1.8-5.1-4.6l-0.1-0.4
					c-1-2.9-3.2-4.7-5.5-4.7h-0.9c-0.6,0-1.1,0.6-1.1,1.3c0,0.7,0.5,1.3,1.1,1.3h0.9c1.5,0,2.8,1.2,3.5,3.2l0.1,0.4
					C498.4,359.1,501.2,361.4,504.2,361.4z"/>
			</g>
		</g>
		<g>
			<g>
				<path class="st4" d="M493.2,361.9c-0.7,0-1.3-0.6-1.3-1.3v-13.3c0-0.7,0.6-1.3,1.3-1.3c0.7,0,1.3,0.6,1.3,1.3v13.3
					C494.5,361.3,493.9,361.9,493.2,361.9z"/>
			</g>
		</g>
		<g>
			<path class="st21" d="M508.4,283c-2-5.1-7.1-6.7-7.9-10.8s2.8-9.3,2.8-9.3c3.3-5.4,4.7-9.2,5.3-11.7c0.5-2.2-0.8-4.3-2.9-5
				l-2.4-0.8c-3.9-1.3-6.5-4.9-6.5-8.9v-0.8h-2.4h-2.3h-2.4v0.8c0,4.1-2.6,7.7-6.5,8.9l-2.4,0.8c-2.1,0.7-3.4,2.9-2.9,5
				c0.6,2.5,2,6.3,5.3,11.7c0,0,3.6,5.1,2.8,9.3c-0.8,4.1-5.9,5.8-7.9,10.8c-1.3,3.4-1.7,10.6-1.8,14.8c0,1.9,1.4,3.4,3.3,3.5h27.2
				c1.9-0.1,3.3-1.6,3.3-3.5C510,293.6,509.7,286.5,508.4,283z"/>
		</g>
		<g>
			<path class="st30" d="M508.4,283c-2-5.1-7.1-6.7-7.9-10.8s2.8-9.3,2.8-9.3c3.3-5.4,4.7-9.2,5.3-11.7c0.5-2.2-0.8-4.3-2.9-5
				l-2.4-0.8c-3.9-1.3-6.5-4.9-6.5-8.9v-0.8h-2.4h-1.2v65.6h13.6c1.9-0.1,3.3-1.6,3.3-3.5C510,293.6,509.7,286.5,508.4,283z"/>
		</g>
		<g>
			<path class="st18" d="M496.7,235.8c0,0.5-1.6,0.8-3.5,0.8s-3.5-0.4-3.5-0.8c0-0.5,1.6-0.8,3.5-0.8
				C495.2,234.9,496.7,235.3,496.7,235.8z"/>
		</g>
	</g>
	<g>
		<path class="st11" d="M500.7,323.1l-1.3-0.6c0.8-1.5,0.8-11-2.7-17.6c-1.8-3.3-1.5-8.8-1.3-14c0.2-5.5,0.5-11.1-1.6-13.6
			c-3.6-4.4-6.8-3.8-6.9-3.8l-0.3-1.4c0.2,0,4.1-0.8,8.2,4.3c2.4,2.9,2.1,8.6,1.9,14.5c-0.2,5.1-0.4,10.4,1.1,13.3
			C501.4,310.7,501.9,320.8,500.7,323.1z"/>
	</g>
	<g>
		<path class="st44" d="M527.1,289.8c-4.5-0.6-13.5-5.1-11.2-10.2c0.9-1.9,2-1.1,2-1.1l11,7C529,285.5,532.9,290.6,527.1,289.8z"/>
	</g>
	<g>
		<path class="st18" d="M518.4,270.3L518.4,270.3L518.4,270.3z"/>
	</g>
	<g>
		<path class="st17" d="M517.4,269.1c0,0,0.4,3.7,0.1,4.1c-0.3,0.4-1.3,0.9-1.8-0.1s0.2-4.1,0.2-4.1L517.4,269.1z"/>
	</g>
	<g>
		<path class="st20" d="M517.5,271.8c-0.6,0.3-1.6,0-2.1-0.6c0.1-0.6,0.1-0.8,0.2-1.4l1.8,0.1C517.5,270.5,517.5,271.2,517.5,271.8z
			"/>
	</g>
	<g>
		<path class="st17" d="M513.7,269.4c-0.2-0.2-0.3-1.1-0.4-2c-0.1-1.1,0.8-2.1,1.9-2.1c0.3,0,0.5,0,0.5-0.1c0.6,0,1.4,0,2,0.3
			c0.6,0.3,0.8,1.2,0.9,1.8c0.1,0.6,0.1,1.8-0.3,2.4c-0.3,0.5-1.3,1.1-1.8,1.2C514.7,271,514.2,270.6,513.7,269.4z"/>
	</g>
	<g>
		<path class="st45" d="M518.3,263.2c-1-1.5-2.7-2.5-4.3-2.9c-0.2-0.1-0.4,0.2-0.2,0.4c0.3,0.4,0.8,0.7,1.1,1.3
			c-0.5-0.4-2.4-1.4-3.3-2.1c-0.2-0.1-0.4,0.1-0.3,0.3c0.2,0.4,0.4,0.8,0.5,1.2c-0.7-0.3-1.2-1-1.8-1.5c-0.2-0.1-0.4,0-0.4,0.2
			c0.1,1.9-0.1,3.6,2.3,5.6c1.4,1.2,4.1,0.4,5.9,0.4l0.1,0.1v0.1c0.1,0.7,0.3,1.4,0.5,2.2c0,0.1,0.1,0.2,0.3,0.2
			c0.8-0.2,1-1,1.1-1.7c0,0,1.1-1,0.9-2.4C520.8,263.7,519.1,263,518.3,263.2z"/>
	</g>
	<g>
		<g>
			<path class="st18" d="M501.8,365.4c-0.3-1.7,1.9-1.3,3.2-1.7c-0.4,0.3-0.7,0.6-0.1,0.8c0.9,0.2,2.8-0.1,3.4-0.8
				c0.2,0.5,0.3,1.1,0.3,1.6C508.5,365.9,502,366.5,501.8,365.4z"/>
		</g>
		<g>
			<path class="st17" d="M504.8,364.5c-0.6-0.2-0.2-0.5,0.1-0.8c0.8-0.3,1.5-0.5,1.6-0.5c0.4-0.2,0.5-0.5,0.5-0.5l0.4-0.1
				c0,0-0.2,0.6,0.5,0.8c0.1,0,0.2,0.2,0.2,0.4C507.7,364.4,505.7,364.7,504.8,364.5z"/>
		</g>
	</g>
	<g>
		<g>
			<path class="st18" d="M518.9,365.1c-0.3-1.7,1.9-1.3,3.2-1.7c-0.4,0.3-0.7,0.6-0.1,0.8c0.9,0.2,2.8-0.1,3.4-0.8
				c0.2,0.5,0.3,1.1,0.3,1.6C525.6,365.6,519.1,366.2,518.9,365.1z"/>
		</g>
		<g>
			<path class="st17" d="M521.9,364.2c-0.6-0.2-0.2-0.5,0.1-0.8c0.8-0.3,1.5-0.5,1.6-0.5c0.4-0.2,0.5-0.5,0.5-0.5l0.4-0.1
				c0,0-0.2,0.6,0.5,0.8c0.1,0,0.2,0.2,0.2,0.4C524.7,364.1,522.8,364.4,521.9,364.2z"/>
		</g>
	</g>
	<g>
		<path class="st27" d="M524.9,290.9c0,0.2,2.3,2.1,4,7.1c2.2,6.6,1.8,10.1,0.9,17.4c-1,8.8-2.6,38.1-4.2,46.2c-0.2,1.1-3,1-3.1-0.4
			c-0.8-8.7-5.1-53.7-5.1-53.7l-9.1,55.3l-2.1,0.1c0,0-0.2-0.4-0.1-1.8c0.6-9.5-2.6-48.8-1.5-53.5c2.2-9.7,4.2-12.4,4.5-15
			C510.9,293.4,521.7,292.5,524.9,290.9z"/>
	</g>
	<g>
		<g>
			<path class="st28" d="M504.5,360.5c0.6-9.5-0.9-47.3-0.4-52.1c0.4-4,1.4-7.8,2.2-10.1c1.1-3.1,3-5.1,3.2-6.6
				c0.4,0.2,6,1.9,8.3,2.1c0,0-9.1,20.1-10.6,69.1l-2.6-0.6C504.6,362.3,504.5,361.9,504.5,360.5z"/>
		</g>
	</g>
	<g>
		<path class="st12" d="M510.1,277.7c0.3-1.9,2.2-4,3.9-4.4c2.8-0.8,6.2-0.9,10.4,0c3.1,0.7,1.7,2.7,1.7,2.7s-0.1,6,0.5,10.8
			c0.6,4.7,0.6,5.9,1.2,8.3c-0.3,0.1-0.8,0.3-1.4,0.4c-2.4,0.5-6.7,0.9-8.7,0.7c-3.6-0.2-6.8-1.3-7.8-1.9c0-0.2,0-0.3,0-0.5
			C508.7,289.2,509.5,281.8,510.1,277.7z"/>
	</g>
	<g>
		<path class="st13" d="M517.3,276.1c0,0,0.4,7.7,0.4,12.2c0,3.1-0.7,7.8-0.7,7.8s-6.4-0.6-8.6-2c0,0,0.4-5.4,0.3-7.3
			c0-1.7,0.4-5.2,0.9-8c0.4-2.8-2.2-4.2,3.7-5.6c1.2-0.3,3.4-0.5,3.5-0.4C517,273.1,517.3,276.1,517.3,276.1z"/>
	</g>
	<g>
		<path class="st17" d="M530.5,288.6c-1.4,2.9-3.5-1.2-3.5-1.2l-2.7-11.8l-0.7-2.5c0,0,1.7,0.1,3.1,1.5c0.5,0.5,1.6,2.9,1.9,3.5
			C530.2,282.3,531.4,286.7,530.5,288.6z"/>
	</g>
	<g>
		<path class="st17" d="M503.4,286c0,0,2.2,3.7,3,2.8c2.5-2.6,5.6-12.9,5.6-12.9l1.7-2.6c0,0-1.3,0-2.5,0.4
			c-0.7,0.2-2.5,0.7-3.6,2.3C504.4,281,503.4,286,503.4,286z"/>
	</g>
	<g>
		<path class="st17" d="M503.1,289.4c-4.4-1-9.4-11.6-9.4-11.6l0.5-0.2l11.2,7.7C505.4,285.3,508.8,290.7,503.1,289.4z"/>
	</g>
	<g>
		<path class="st45" d="M513.3,265.2c0,0,1,3.5,2.7,5.2c0.8,0.8,4.1-0.9,3.8-3.1s-5-3.7-5.5-3.3
			C513.8,264.4,513.3,265.2,513.3,265.2z"/>
	</g>
	<g>
		<path class="st17" d="M494.3,277.7l0.1-1.6c0,0-0.8-0.6-1.2-0.1c-0.2,0.2,0.6,2,0.6,2L494.3,277.7z"/>
	</g>
	<g>
		<path class="st17" d="M494.2,276.6c0,0,0.5-0.9,0.6-0.7s-0.2,0.9-0.2,0.9l-0.6,0.7L494.2,276.6L494.2,276.6z"/>
	</g>
	<g>
		<path class="st17" d="M494.4,276c0,0,0.1-0.5-0.3-1.1c-0.4-0.6,0,1.2,0,1.2L494.4,276z"/>
	</g>
	<g>
		<path class="st17" d="M494.2,276.7c0,0,0-0.6-0.6-1.1c-0.6-0.4,0.3,1.2,0.3,1.2L494.2,276.7z"/>
	</g>
	<g>
		<path class="st17" d="M494,276.9c0,0,0-0.7-0.6-1.2c-0.2-0.1-0.4,0.2-0.2,0.8c0.1,0.3,0.4,0.6,0.4,0.6L494,276.9z"/>
	</g>
	<g>
		<path class="st17" d="M494.3,276.1c0,0-0.2-0.9-0.8-1.3c-0.5-0.4,0.5,1.5,0.5,1.5L494.3,276.1z"/>
	</g>
	<g>
		<path class="st27" d="M510.1,296.9l6.6,0.4c0,0,0.5,8.1-1.9,8.6c-2.3,0.5-6.1-0.8-6.1-4.5C508.9,297.7,510.1,296.9,510.1,296.9z"
			/>
	</g>
	<g>
		<path class="st28" d="M527.3,297.2l-6.6,0.4c0,0-0.5,8.1,1.9,8.6c2.3,0.5,6.1-0.8,6.1-4.5C528.6,298,527.3,297.2,527.3,297.2z"/>
	</g>
	<g>
		<path class="st13" d="M514.3,273.2c0,0-4.1-0.4-6.5,2.7c-2.4,3.1-3.3,4.8-3.3,4.8l4.7,4L514.3,273.2z"/>
	</g>
	<g>
		<polygon class="st13" points="504.4,279.9 509.7,284.7 509.3,286 503.4,281.1 		"/>
	</g>
	<g>
		<path class="st12" d="M521.1,272.8c0,0,4.1-0.4,6.5,2.7c2.4,3.1,2.7,5.6,2.7,5.6l-4.1,3.1L521.1,272.8z"/>
	</g>
	<g>
		<polygon class="st12" points="530.3,280.3 525.6,284.3 526.1,285.6 531.3,281.6 		"/>
	</g>
	<g>
		<polygon class="st11" points="486,271.9 500.4,272.2 501,273.7 485.6,273.5 		"/>
	</g>
	<g>
		<path class="st46" d="M509.7,260.1c0.1,0.7,0.2,1.3,0.3,2c0.1,0.6,0.4,1.3,0.7,1.8c0.3,0.5,0.8,1,1.3,1.4c0.4,0.4,1,0.6,1.7,0.7
			l0,0c0.1,0,0.2,0.1,0.2,0.2c0.3,0.7,0.5,1.4,0.9,2.1c0.3,0.7,0.7,1.4,1.2,2c-0.6-0.5-1.1-1.1-1.5-1.8c-0.4-0.7-0.8-1.4-1-2.1
			l0.2,0.2c-0.7-0.1-1.5-0.3-2-0.8s-1-1-1.3-1.6c-0.4-0.6-0.5-1.3-0.6-2C509.7,261.5,509.7,260.8,509.7,260.1z"/>
	</g>
</g>
<g>
	<g>
		<g>
			<polygon class="st36" points="140.5,195.7 132.4,203.5 102.8,172.9 110.7,165.1 			"/>
		</g>
		<g>
			<path class="st36" d="M140.3,195.5c0.5,0.5-0.9,2.7-3.1,4.9c-2.2,2.2-4.5,3.5-5,3s0.9-2.7,3.1-4.9
				C137.5,196.3,139.8,194.9,140.3,195.5z"/>
		</g>
		<g>
			<path class="st28" d="M124.2,201c1,1,4.9-1.3,8.7-5c3.9-3.8,6.2-7.6,5.3-8.6L117.5,166l-14,13.6L124.2,201"/>
		</g>
		<g>
			<path class="st40" d="M117.6,166c1,1-1.4,4.8-5.3,8.6c-3.9,3.8-7.8,6-8.7,5c-1-1,1.4-4.8,5.3-8.6
				C112.7,167.3,116.6,165.1,117.6,166z"/>
		</g>
		<g>
			<path class="st36" d="M106.6,176.7c0.5,0.5,2.7-0.8,5-3c2.2-2.2,3.6-4.3,3.1-4.9l-3.9-3.8l-8.1,7.8L106.6,176.7"/>
		</g>
		<g>
			<path class="st0" d="M110.8,165c0.5,0.5-0.9,2.7-3.1,4.9c-2.2,2.2-4.5,3.5-5,3s0.9-2.7,3.1-4.9
				C108.1,165.8,110.3,164.5,110.8,165z"/>
		</g>
		<g>
			<path class="st10" d="M110,165.8c0.4,0.4-0.7,2.2-2.5,3.9c-1.8,1.7-3.6,2.8-4,2.4s0.7-2.2,2.5-3.9
				C107.8,166.5,109.6,165.4,110,165.8z"/>
		</g>
	</g>
	<g>
		<path class="st40" d="M110.4,185.7c0.6-1.5,1.3-3,1.9-4.4c0.7-1.5,1.4-2.9,2.1-4.4s1.4-2.9,2.2-4.3l1.1-2.2
			c0.4-0.7,0.8-1.4,1.2-2.1c-0.3,0.7-0.6,1.5-1,2.2l-1,2.2c-0.7,1.5-1.4,2.9-2.1,4.4s-1.4,2.9-2.2,4.3
			C111.9,182.9,111.2,184.3,110.4,185.7z"/>
	</g>
	<g>
		<path class="st40" d="M112.8,188.3c0.6-1.5,1.3-3,1.9-4.4c0.7-1.5,1.4-2.9,2.1-4.4s1.4-2.9,2.2-4.3l1.1-2.2
			c0.4-0.7,0.8-1.4,1.2-2.1c-0.3,0.7-0.6,1.5-1,2.2l-1,2.2c-0.7,1.5-1.4,2.9-2.1,4.4s-1.4,2.9-2.2,4.3
			C114.3,185.4,113.6,186.9,112.8,188.3z"/>
	</g>
	<g>
		<path class="st40" d="M115.1,190.8c0.6-1.5,1.3-3,1.9-4.4c0.7-1.5,1.4-2.9,2.1-4.4s1.4-2.9,2.2-4.3l1.1-2.2
			c0.4-0.7,0.8-1.4,1.2-2.1c-0.3,0.7-0.6,1.5-1,2.2l-1,2.2c-0.7,1.5-1.4,2.9-2.1,4.4s-1.4,2.9-2.2,4.3
			C116.7,188,115.9,189.4,115.1,190.8z"/>
	</g>
	<g>
		<path class="st40" d="M117.5,193.4c0.6-1.5,1.3-3,1.9-4.4c0.7-1.5,1.4-2.9,2.1-4.4s1.4-2.9,2.2-4.3l1.1-2.2
			c0.4-0.7,0.8-1.4,1.2-2.1c-0.3,0.7-0.6,1.5-1,2.2l-1,2.2c-0.7,1.5-1.4,2.9-2.1,4.4s-1.4,2.9-2.2,4.3
			C119,190.5,118.3,192,117.5,193.4z"/>
	</g>
	<g>
		<path class="st40" d="M119.8,195.9c0.6-1.5,1.3-3,1.9-4.4c0.7-1.5,1.4-2.9,2.1-4.4s1.4-2.9,2.2-4.3l1.1-2.2
			c0.4-0.7,0.8-1.4,1.2-2.1c-0.3,0.7-0.6,1.5-1,2.2l-1,2.2c-0.7,1.5-1.4,2.9-2.1,4.4s-1.4,2.9-2.2,4.3
			C121.4,193.1,120.6,194.5,119.8,195.9z"/>
	</g>
	<g>
		<path class="st40" d="M122.2,198.5c0.6-1.5,1.3-3,1.9-4.4c0.7-1.5,1.4-2.9,2.1-4.4s1.4-2.9,2.2-4.3l1.1-2.2
			c0.4-0.7,0.8-1.4,1.2-2.1c-0.3,0.7-0.6,1.5-1,2.2l-1,2.2c-0.7,1.5-1.4,2.9-2.1,4.4s-1.4,2.9-2.2,4.3
			C123.7,195.6,123,197,122.2,198.5z"/>
	</g>
	<g>
		<path class="st40" d="M124.6,201c0.6-1.5,1.3-3,1.9-4.4c0.7-1.5,1.4-2.9,2.1-4.4c0.7-1.5,1.4-2.9,2.2-4.3l1.1-2.2
			c0.4-0.7,0.8-1.4,1.2-2.1c-0.3,0.7-0.6,1.5-1,2.2l-1,2.2c-0.7,1.5-1.4,2.9-2.1,4.4c-0.7,1.5-1.4,2.9-2.2,4.3
			C126.1,198.2,125.3,199.6,124.6,201z"/>
	</g>
</g>
<g>
	<g>
		<g>
			<polygon class="st36" points="297.2,205.3 286,199.4 308.4,157.2 319.4,162.9 			"/>
		</g>
		<g>
			<path class="st36" d="M297.3,204.9c-0.4,0.7-3.2,0-6.3-1.6c-3.1-1.6-5.3-3.5-4.9-4.3c0.4-0.7,3.2,0,6.3,1.6
				C295.5,202.3,297.7,204.2,297.3,204.9z"/>
		</g>
		<g>
			<path class="st15" d="M285.8,189.8c-0.7,1.4,3,4.7,8.4,7.6c5.3,2.8,10.2,4,11,2.6l15.6-29.5l-19.3-10.2L285.8,189.8"/>
		</g>
		<g>
			<path class="st14" d="M320.7,170.5c-0.7,1.4-5.6,0.2-11-2.6c-5.4-2.8-9.1-6.2-8.4-7.6s5.6-0.2,11,2.6
				C317.7,165.8,321.5,169.2,320.7,170.5z"/>
		</g>
		<g>
			<path class="st36" d="M305.6,162.6c-0.4,0.7,1.8,2.6,4.9,4.2s5.9,2.4,6.3,1.6l2.7-5.5l-11.2-5.9L305.6,162.6"/>
		</g>
		<g>
			<path class="st10" d="M319.5,163c-0.4,0.7-3.2,0-6.3-1.6c-3.1-1.6-5.3-3.5-4.9-4.2c0.4-0.7,3.2,0,6.3,1.6S319.9,162.3,319.5,163z
				"/>
		</g>
		<g>
			<path class="st10" d="M318.4,162.4c-0.3,0.6-2.5,0-5-1.3c-2.5-1.3-4.2-2.8-3.9-3.4c0.3-0.6,2.5,0,5,1.3
				C316.9,160.3,318.7,161.8,318.4,162.4z"/>
		</g>
	</g>
	<g>
		<path class="st14" d="M297.3,169.8c1.8,0.1,3.6,0.3,5.4,0.5s3.6,0.4,5.4,0.7c1.8,0.2,3.6,0.5,5.4,0.8l2.7,0.4
			c0.9,0.2,1.8,0.3,2.7,0.5c-0.9-0.1-1.8-0.2-2.7-0.2l-2.7-0.3c-1.8-0.2-3.6-0.4-5.4-0.7c-1.8-0.2-3.6-0.5-5.4-0.8
			C300.9,170.4,299.1,170.1,297.3,169.8z"/>
	</g>
	<g>
		<path class="st14" d="M295.4,173.2c1.8,0.1,3.6,0.3,5.4,0.5c1.8,0.2,3.6,0.4,5.4,0.7c1.8,0.2,3.6,0.5,5.4,0.8l2.7,0.4
			c0.9,0.2,1.8,0.3,2.7,0.5c-0.9-0.1-1.8-0.2-2.7-0.2l-2.7-0.3c-1.8-0.2-3.6-0.4-5.4-0.7c-1.8-0.2-3.6-0.5-5.4-0.8
			S297.2,173.5,295.4,173.2z"/>
	</g>
	<g>
		<path class="st14" d="M293.5,176.6c1.8,0.1,3.6,0.3,5.4,0.5s3.6,0.4,5.4,0.7c1.8,0.2,3.6,0.5,5.4,0.8l2.7,0.4
			c0.9,0.2,1.8,0.3,2.7,0.5c-0.9-0.1-1.8-0.2-2.7-0.2l-2.7-0.3c-1.8-0.2-3.6-0.4-5.4-0.7c-1.8-0.2-3.6-0.5-5.4-0.8
			C297.1,177.2,295.3,176.9,293.5,176.6z"/>
	</g>
	<g>
		<path class="st14" d="M291.6,180c1.8,0.1,3.6,0.3,5.4,0.5s3.6,0.4,5.4,0.7c1.8,0.2,3.6,0.5,5.4,0.8l2.7,0.4
			c0.9,0.2,1.8,0.3,2.7,0.5c-0.9-0.1-1.8-0.2-2.7-0.2l-2.7-0.3c-1.8-0.2-3.6-0.4-5.4-0.7c-1.8-0.2-3.6-0.5-5.4-0.8
			C295.2,180.6,293.4,180.3,291.6,180z"/>
	</g>
	<g>
		<path class="st14" d="M289.8,183.3c1.8,0.1,3.6,0.3,5.4,0.5s3.6,0.4,5.4,0.7c1.8,0.2,3.6,0.5,5.4,0.8l2.7,0.4
			c0.9,0.2,1.8,0.3,2.7,0.5c-0.9-0.1-1.8-0.2-2.7-0.2l-2.7-0.3c-1.8-0.2-3.6-0.4-5.4-0.7c-1.8-0.2-3.6-0.5-5.4-0.8
			C293.3,184,291.5,183.7,289.8,183.3z"/>
	</g>
	<g>
		<path class="st14" d="M287.9,186.7c1.8,0.1,3.6,0.3,5.4,0.5c1.8,0.2,3.6,0.4,5.4,0.7c1.8,0.2,3.6,0.5,5.4,0.8l2.7,0.4
			c0.9,0.2,1.8,0.3,2.7,0.5c-0.9-0.1-1.8-0.2-2.7-0.2l-2.7-0.3c-1.8-0.2-3.6-0.4-5.4-0.7c-1.8-0.2-3.6-0.5-5.4-0.8
			C291.4,187.4,289.6,187.1,287.9,186.7z"/>
	</g>
	<g>
		<path class="st14" d="M286,190.1c1.8,0.1,3.6,0.3,5.4,0.5s3.6,0.4,5.4,0.7c1.8,0.2,3.6,0.5,5.4,0.8l2.7,0.4
			c0.9,0.2,1.8,0.3,2.7,0.5c-0.9-0.1-1.8-0.2-2.7-0.2l-2.7-0.3c-1.8-0.2-3.6-0.4-5.4-0.7c-1.8-0.2-3.6-0.5-5.4-0.8
			C289.5,190.8,287.8,190.5,286,190.1z"/>
	</g>
</g>
<g>
	<g>
		<path class="st47" d="M360.8,132.9c-6.7,0-12.1,5.4-12.1,12.1s5.4,12.1,12.1,12.1s12.1-5.4,12.1-12.1
			C372.8,138.3,367.4,132.9,360.8,132.9z M356.1,147.3c-1.2,0-2.2-1-2.2-2.2s1-2.2,2.2-2.2s2.2,1,2.2,2.2
			C358.3,146.3,357.4,147.3,356.1,147.3z M365.3,147.3c-1.2,0-2.2-1-2.2-2.2s1-2.2,2.2-2.2s2.2,1,2.2,2.2S366.5,147.3,365.3,147.3z"
			/>
	</g>
	<g>
		<path class="st8" d="M359.6,132.9c-6.7,0-12.1,5.4-12.1,12.1s5.4,12.1,12.1,12.1s12.1-5.4,12.1-12.1S366.3,132.9,359.6,132.9z
			 M355,147.3c-1.2,0-2.2-1-2.2-2.2s1-2.2,2.2-2.2s2.2,1,2.2,2.2S356.2,147.3,355,147.3z M364.1,147.3c-1.2,0-2.2-1-2.2-2.2
			s1-2.2,2.2-2.2s2.2,1,2.2,2.2C366.3,146.3,365.3,147.3,364.1,147.3z"/>
	</g>
</g>
<g>
	<g>
		<path class="st47" d="M258.1,222.7c-5.2,0-9.5,4.2-9.5,9.5c0,5.2,4.2,9.5,9.5,9.5c5.2,0,9.5-4.2,9.5-9.5
			C267.6,227,263.3,222.7,258.1,222.7z M254.5,234c-0.9,0-1.7-0.8-1.7-1.7s0.8-1.7,1.7-1.7s1.7,0.8,1.7,1.7S255.4,234,254.5,234z
			 M261.6,234c-0.9,0-1.7-0.8-1.7-1.7s0.8-1.7,1.7-1.7c0.9,0,1.7,0.8,1.7,1.7C263.3,233.2,262.6,234,261.6,234z"/>
	</g>
	<g>
		<path class="st25" d="M257.2,222.7c-5.2,0-9.5,4.2-9.5,9.5c0,5.2,4.2,9.5,9.5,9.5c5.2,0,9.5-4.2,9.5-9.5
			C266.7,227,262.4,222.7,257.2,222.7z M253.6,234c-0.9,0-1.7-0.8-1.7-1.7s0.8-1.7,1.7-1.7s1.7,0.8,1.7,1.7S254.5,234,253.6,234z
			 M260.7,234c-0.9,0-1.7-0.8-1.7-1.7s0.8-1.7,1.7-1.7s1.7,0.8,1.7,1.7C262.4,233.2,261.7,234,260.7,234z"/>
	</g>
</g>
<g>
	<g>
		<g>
			<g>
				<path class="st10" d="M219.8,155.4c-8.2,0-14.9,6.7-14.9,14.9c0,8.2,6.7,14.9,14.9,14.9s14.9-6.7,14.9-14.9
					C234.7,162.1,228.1,155.4,219.8,155.4z M214.1,173.2c-1.5,0-2.7-1.2-2.7-2.7s1.2-2.7,2.7-2.7s2.7,1.2,2.7,2.7
					C216.8,172,215.6,173.2,214.1,173.2z M225.4,173.2c-1.5,0-2.7-1.2-2.7-2.7s1.2-2.7,2.7-2.7s2.7,1.2,2.7,2.7
					C228.1,172,226.9,173.2,225.4,173.2z"/>
			</g>
		</g>
		<g>
			<g>
				<path class="st11" d="M218.4,155.4c-8.2,0-14.9,6.7-14.9,14.9c0,8.2,6.7,14.9,14.9,14.9s14.9-6.7,14.9-14.9
					C233.3,162.1,226.6,155.4,218.4,155.4z M212.7,173.2c-1.5,0-2.7-1.2-2.7-2.7s1.2-2.7,2.7-2.7s2.7,1.2,2.7,2.7
					C215.4,172,214.2,173.2,212.7,173.2z M224,173.2c-1.5,0-2.7-1.2-2.7-2.7s1.2-2.7,2.7-2.7s2.7,1.2,2.7,2.7
					C226.7,172,225.5,173.2,224,173.2z"/>
			</g>
		</g>
	</g>
	<g>
		<g>
			<path class="st10" d="M218.4,183.8c-7.4,0-13.4-6-13.4-13.4c0-7.4,6-13.4,13.4-13.4s13.4,6,13.4,13.4
				C231.8,177.8,225.8,183.8,218.4,183.8z M218.4,157.7c-7.1,0-12.8,5.7-12.8,12.8c0,7.1,5.7,12.8,12.8,12.8s12.8-5.7,12.8-12.8
				S225.5,157.7,218.4,157.7z"/>
		</g>
	</g>
</g>
<g>
	<g>
		<path class="st25" d="M419.7,211.8l-24-6.7c-1.9-0.5-3-2.5-2.4-4.3l0,0c0.7-2.6,5.5-7.4,13.6-7.1c3.2,0.1,7,1,11.3,3.2
			c3.4,1.7,6.8,8.8,5.8,12.5l0,0C423.5,211.3,421.5,212.3,419.7,211.8z"/>
	</g>
	<g>
		<path class="st48" d="M420.7,216.3l-27.8-7.8c-0.9-0.2-1.4-1.2-1.2-2.1l0.2-0.7c0.2-0.9,1.2-1.4,2.1-1.2l27.8,7.8
			c0.9,0.2,1.4,1.2,1.2,2.1l-0.2,0.7C422.5,216.1,421.5,216.6,420.7,216.3z"/>
	</g>
	<g>
		<g>
			<g>
				<path class="st5" d="M404.1,175.2c-0.1,0-0.1-0.1-0.2-0.1c-0.3-0.2-1.5-1.1-1.8-2.2c-0.3-1,0-2.3,1.6-2.8
					c0.7-0.2,1.3-0.1,1.8,0.4c0.6,0.5,0.9,1.3,0.8,2.1c-0.1,1.1-1.3,2.3-1.6,2.5C404.6,175.3,404.3,175.3,404.1,175.2z M404.4,171.5
					c-0.1,0-0.2,0-0.4,0c-0.2,0.1-0.8,0.2-0.6,1.1c0.1,0.3,0.5,0.7,0.8,1.1c0.3-0.4,0.7-0.8,0.7-1.1c0-0.3-0.1-0.7-0.4-0.9
					C404.6,171.6,404.5,171.5,404.4,171.5z"/>
			</g>
		</g>
		<g>
			<g>
				<polygon class="st5" points="404.2,198.9 403.5,174.4 404.9,174.4 				"/>
			</g>
		</g>
	</g>
	<g>
		<g>
			<g>
				<path class="st5" d="M437.6,194.7c0-0.1,0-0.1,0-0.2c0-0.3,0.3-1.9,1.1-2.6c0.8-0.7,2.1-1.1,3.2,0.1c0.5,0.5,0.7,1.1,0.5,1.8
					c-0.2,0.7-0.7,1.4-1.5,1.7c-1,0.4-2.6-0.1-2.9-0.3C437.8,195.2,437.6,195,437.6,194.7z M441.1,193.3c0-0.1-0.1-0.2-0.2-0.3
					c-0.2-0.2-0.6-0.6-1.3,0c-0.2,0.2-0.4,0.7-0.6,1.2c0.5,0.1,1.1,0.2,1.3,0.1c0.3-0.1,0.6-0.4,0.7-0.7
					C441.1,193.5,441.1,193.4,441.1,193.3z"/>
			</g>
		</g>
		<g>
			<g>
				<polygon class="st5" points="416.7,205.7 438.1,193.8 438.7,195.1 				"/>
			</g>
		</g>
	</g>
	<g>
		<g>
			<g>
				<path class="st5" d="M431.7,185.3c0-0.1-0.1-0.1-0.1-0.2c-0.1-0.3-0.4-1.9,0.1-2.8s1.6-1.7,3-1c0.6,0.3,1,0.8,1.1,1.5
					s-0.2,1.6-0.8,2.1c-0.8,0.8-2.5,0.8-2.8,0.8C432,185.7,431.8,185.5,431.7,185.3z M434.5,182.8c-0.1-0.1-0.2-0.2-0.3-0.3
					c-0.2-0.1-0.8-0.4-1.2,0.4c-0.1,0.3-0.2,0.8-0.1,1.3c0.5,0,1.1-0.2,1.3-0.4c0.3-0.2,0.4-0.6,0.4-0.9
					C434.5,182.9,434.5,182.8,434.5,182.8z"/>
			</g>
		</g>
		<g>
			<g>
				<polygon class="st5" points="415.9,202.9 431.8,184.3 432.8,185.2 				"/>
			</g>
		</g>
	</g>
	<g>
		<g>
			<g>
				<path class="st5" d="M395.8,179.6c-0.1,0-0.1,0-0.2,0c-0.3-0.1-1.9-0.5-2.5-1.3s-0.9-2.1,0.4-3.2c0.5-0.4,1.2-0.6,1.8-0.4
					c0.7,0.2,1.3,0.8,1.6,1.6c0.4,1.1-0.3,2.6-0.5,2.9C396.2,179.4,396,179.6,395.8,179.6z M394.6,176c-0.1,0-0.2,0.1-0.4,0.2
					c-0.2,0.1-0.7,0.5-0.1,1.2c0.2,0.2,0.7,0.5,1.2,0.7c0.2-0.5,0.3-1,0.2-1.3c-0.1-0.3-0.4-0.6-0.7-0.7
					C394.8,176,394.7,176,394.6,176z"/>
			</g>
		</g>
		<g>
			<g>
				<polygon class="st5" points="405.1,201.3 394.9,179.1 396.2,178.5 				"/>
			</g>
		</g>
	</g>
	<g>
		<g>
			<g>
				<path class="st5" d="M385.7,191.4c-0.1,0-0.1,0.1-0.2,0.1c-0.3,0.1-1.8,0.7-2.8,0.4c-1-0.3-2-1.2-1.5-2.8
					c0.2-0.7,0.6-1.1,1.3-1.3c0.7-0.2,1.6-0.1,2.2,0.4c0.9,0.7,1.2,2.3,1.3,2.6C386,191,385.9,191.3,385.7,191.4z M382.7,189.1
					c-0.1,0.1-0.2,0.2-0.2,0.3c-0.1,0.2-0.2,0.8,0.6,1.1c0.3,0.1,0.9,0,1.3-0.1c-0.1-0.5-0.4-1-0.6-1.2
					C383.5,189,383.1,188.9,382.7,189.1C382.8,189.1,382.7,189.1,382.7,189.1z"/>
			</g>
		</g>
		<g>
			<g>
				<polygon class="st5" points="405.7,203.9 384.6,191.5 385.4,190.3 				"/>
			</g>
		</g>
	</g>
	<g>
		<g>
			<g>
				<polygon class="st5" points="407.6,198.1 412,176 413.3,176.3 				"/>
			</g>
		</g>
		<g>
			<path class="st8" d="M416,174.9c-0.4,1.6-2,2.6-3.5,2.2c-1.5-0.4-2.6-2-2.2-3.5c0.4-1.6,2-2.6,3.5-2.2
				C415.4,171.7,416.3,173.3,416,174.9z"/>
		</g>
		<g>
			<path class="st49" d="M413,172.1c0.2,0.4,0,0.9-0.5,1.1c-0.5,0.3-1,0.2-1.2-0.2c-0.2-0.4,0-0.9,0.5-1.1
				C412.3,171.6,412.8,171.7,413,172.1z"/>
		</g>
	</g>
	<g>
		<g>
			<g>
				<polygon class="st5" points="412.1,201.6 423.4,178.8 424.7,179.5 				"/>
			</g>
		</g>
		<g>
			<path class="st11" d="M428,178.7c-0.9,1.6-2.9,2.2-4.5,1.4c-1.6-0.9-2.2-2.9-1.4-4.5c0.9-1.6,2.9-2.2,4.5-1.4
				C428.3,175.1,428.9,177.1,428,178.7z"/>
		</g>
		<g>
			<path class="st36" d="M425.6,174.8c0.1,0.5-0.3,0.9-0.8,1.1c-0.6,0.1-1.1-0.1-1.3-0.6c-0.1-0.5,0.3-0.9,0.8-1.1
				C425,174.1,425.5,174.3,425.6,174.8z"/>
		</g>
	</g>
	<g>
		<g>
			<g>
				<polygon class="st5" points="401.3,199.2 388.8,183.8 389.7,183.1 				"/>
			</g>
		</g>
		<g>
			<path class="st28" d="M390.2,180.4c0.9,1.1,0.7,2.8-0.5,3.7c-1.1,0.9-2.8,0.7-3.7-0.5c-0.9-1.1-0.7-2.8,0.5-3.7
				S389.3,179.3,390.2,180.4z"/>
		</g>
		<g>
			<path class="st50" d="M386.6,180.9c0.4,0.1,0.6,0.5,0.5,1s-0.4,0.8-0.8,0.7c-0.4-0.1-0.6-0.5-0.5-1
				C385.9,181.1,386.3,180.8,386.6,180.9z"/>
		</g>
	</g>
	<g>
		<path class="st25" d="M419.8,211.9l-24-6.7c-1.9-0.5-3-2.3-2.5-3.9l0,0c0.7-2.3,5.2-6.4,13.3-5.9c3.2,0.2,7,1.1,11.3,3.2
			c3.4,1.6,7,8.1,6.1,11.3l0,0C423.6,211.5,421.7,212.4,419.8,211.9z"/>
	</g>
	<g>
		<path class="st48" d="M409.8,195.8c0,0.2-0.8,0.3-1.7,0.2c-0.9-0.1-1.6-0.4-1.5-0.6c0-0.2,0.8-0.3,1.7-0.2
			S409.9,195.6,409.8,195.8z"/>
	</g>
	<g>
		<path class="st48" d="M406.4,195.2c0,0.2-0.7,0.4-1.6,0.5c-0.9,0-1.6-0.1-1.6-0.3c0-0.2,0.7-0.4,1.6-0.5
			C405.6,194.9,406.3,195,406.4,195.2z"/>
	</g>
	<g>
		<path class="st48" d="M400.8,195.9c0.1,0.2-0.5,0.6-1.4,0.9c-0.8,0.3-1.6,0.4-1.7,0.2s0.5-0.6,1.4-0.9
			C400,195.8,400.7,195.7,400.8,195.9z"/>
	</g>
	<g>
		<path class="st48" d="M397.8,196.9c0.1,0.2-0.4,0.7-1.1,1.3c-0.7,0.5-1.4,0.8-1.5,0.6c-0.1-0.2,0.4-0.7,1.1-1.3
			C397,197,397.7,196.8,397.8,196.9z"/>
	</g>
	<g>
		<path class="st48" d="M415.9,197.6c-0.1,0.2-0.8,0-1.6-0.3c-0.8-0.4-1.4-0.9-1.3-1.1c0.1-0.2,0.8,0,1.6,0.3
			C415.5,196.9,416,197.4,415.9,197.6z"/>
	</g>
	<g>
		<path class="st48" d="M420.3,200.4c-0.2,0.2-0.8-0.2-1.5-0.8c-0.6-0.6-1.1-1.2-0.9-1.4c0.2-0.2,0.8,0.2,1.5,0.8
			S420.5,200.3,420.3,200.4z"/>
	</g>
	<g>
		<path class="st48" d="M422.7,204.4c-0.2,0.1-0.7-0.4-1.1-1.2c-0.4-0.8-0.6-1.5-0.4-1.6s0.7,0.4,1.1,1.2
			C422.7,203.5,422.9,204.2,422.7,204.4z"/>
	</g>
</g>
</svg>
